# Blender 4.1.1
# www.blender.org
mtllib tetrascapeBlenderTest_InsMonomer_4EWW_240702.mtl
o Tetrahedrons_Chain_A
v 17.417999 -9.441002 -19.420000
v 16.561001 -12.019001 -18.162001
v 14.538000 -10.255002 -19.488001
v 15.795000 -9.412701 -16.905001
v 14.587000 -8.901501 -14.212999
v 13.318000 -10.875001 -16.073000
v 13.193000 -7.947502 -16.684999
v 12.494000 -7.692301 -19.584999
v 12.997000 -5.238701 -17.945000
v 10.522000 -6.861701 -17.490999
v 12.367000 -10.660002 -19.958000
v 14.187000 -9.012502 -21.672001
v 11.221000 -8.838802 -22.040001
v 12.952000 -12.715001 -17.860998
v 10.986000 -13.315001 -20.037998
v 10.297000 -11.333001 -17.903000
v 9.498600 -10.273001 -15.218999
v 7.549100 -11.865001 -16.840000
v 8.310200 -9.101801 -17.704000
v 7.981100 -7.760002 -20.360001
v 8.225800 -6.113902 -17.872000
v 5.743900 -7.711802 -18.371000
v 8.236700 -9.801602 -22.535000
v 9.860100 -7.288502 -22.643000
v 6.902200 -7.180202 -23.091999
v 7.102500 -12.089002 -20.972000
v 9.666900 -12.431002 -22.478001
v 7.081700 -12.165002 -23.964001
v 4.546500 -13.479002 -20.264997
v 5.485700 -11.152001 -18.632999
v 6.943500 -13.763000 -18.493998
v 6.937600 -15.320001 -15.936999
v 9.204700 -13.464001 -16.554998
v 8.886300 -16.007002 -18.103998
v 7.007500 -18.237001 -15.268999
v 4.492400 -16.667002 -14.855999
v 6.855700 -16.203001 -13.077999
v 5.144500 -16.094999 -10.623999
v 7.539800 -14.314001 -10.857999
v 7.897500 -17.261999 -10.478999
v 8.735500 -20.040001 -9.741098
v 9.567600 -17.723000 -8.037399
v 10.762000 -18.086000 -10.758999
v 11.450000 -15.208001 -11.217999
v 11.024000 -17.036001 -13.549999
v 13.457000 -17.343000 -11.831999
v 9.823600 -13.195001 -9.713299
v 12.616000 -12.530001 -10.562999
v 12.150000 -14.533001 -8.386499
v 12.888000 -16.947001 -6.776999
v 13.973000 -14.259000 -6.027699
v 14.936000 -15.622001 -8.513399
v 16.555000 -13.227001 -9.288699
v 16.023001 -15.386001 -11.292999
v 17.877001 -15.897001 -8.998699
v 15.388000 -10.473001 -9.143999
v 18.275999 -10.912001 -8.487899
v 16.150999 -11.910001 -6.630599
v 17.938999 -11.957000 -4.229999
v 15.443000 -13.609000 -4.269699
v 15.261000 -10.627000 -4.075899
v 19.611000 -13.089000 -2.019499
v 19.722000 -10.160000 -2.631399
v 20.910999 -12.135000 -4.541899
vn 0.8401 -0.0146 0.5423
vn 0.1545 -0.4743 -0.8667
vn -0.2636 0.9476 -0.1807
vn -0.7310 -0.4586 0.5053
vn 0.4935 0.8679 0.0566
vn 0.5617 -0.7293 0.3906
vn -0.1985 -0.2087 -0.9576
vn -0.8571 0.0701 0.5104
vn 0.9706 -0.0402 -0.2375
vn -0.1050 0.4132 0.9046
vn -0.3791 -0.9253 0.0100
vn -0.4864 0.5523 -0.6771
vn 0.7344 -0.1155 0.6688
vn 0.1093 0.8777 -0.4666
vn -0.8835 -0.0210 0.4679
vn 0.0397 -0.7411 -0.6702
vn 0.3623 0.7142 0.5988
vn 0.7384 -0.3670 -0.5657
vn -0.7099 0.3870 -0.5884
vn -0.3909 -0.7341 0.5553
vn 0.7443 0.6665 -0.0418
vn 0.3291 -0.8408 0.4299
vn -0.3192 -0.2016 -0.9260
vn -0.7544 0.3760 0.5380
vn 0.9935 0.0218 -0.1121
vn -0.2267 0.0483 0.9728
vn -0.3603 -0.8498 -0.3847
vn -0.4064 0.7799 -0.4760
vn 0.7325 -0.4513 0.5097
vn 0.0046 0.9786 0.2059
vn -0.8810 -0.3922 0.2647
vn 0.1439 -0.1351 -0.9803
vn 0.5127 0.2964 0.8058
vn 0.5015 0.2548 -0.8268
vn -0.8972 0.4415 -0.0050
vn -0.1171 -0.9928 0.0260
vn 0.2912 -0.8013 -0.5226
vn -0.5042 0.6230 -0.5981
vn 0.8034 0.4682 0.3678
vn -0.5907 -0.2897 0.7531
vn -0.4874 0.7463 0.4533
vn 0.5755 0.3717 -0.7285
vn -0.6610 -0.6403 -0.3914
vn 0.5726 -0.4776 0.6663
vn 0.9987 0.0328 0.0387
vn -0.2904 -0.2202 -0.9312
vn -0.3732 0.8894 0.2640
vn -0.3350 -0.7020 0.6285
vn -0.3710 -0.9024 -0.2190
vn -0.5663 0.7056 -0.4259
vn 0.9354 0.0689 -0.3469
vn 0.0019 0.1277 0.9918
vn -0.1786 -0.3026 -0.9363
vn -0.8299 -0.1048 0.5479
vn 0.2758 0.9612 -0.0072
vn 0.7327 -0.5539 0.3954
vn -0.9727 0.2319 -0.0041
vn 0.1220 -0.9327 -0.3394
vn 0.3538 0.0642 0.9331
vn 0.4968 0.6366 -0.5898
vn -0.6035 -0.7290 0.3230
vn -0.3493 0.3633 -0.8637
vn 0.9199 -0.3663 -0.1401
vn 0.0328 0.7319 0.6806
vn -0.2652 -0.5897 -0.7628
vn -0.7904 0.1537 0.5930
vn 0.3264 0.8764 -0.3541
vn 0.7291 -0.4403 0.5239
vn -0.8342 0.4713 -0.2862
vn -0.1132 -0.9853 -0.1279
vn 0.1773 0.1926 0.9651
vn 0.7702 0.3215 -0.5508
vn -0.9183 -0.3920 0.0547
vn 0.2409 0.1525 -0.9585
vn 0.6569 -0.6311 0.4125
vn 0.0207 0.8706 0.4915
vn 0.5112 -0.7629 -0.3957
vn -0.9494 -0.0377 -0.3118
vn 0.4122 0.8637 -0.2901
vn 0.0260 -0.0633 0.9977
vn -0.7448 0.1634 0.6470
vn -0.0355 0.6837 -0.7289
vn -0.0962 -0.9136 -0.3951
vn 0.8765 0.0664 0.4768
s 0
f 1//1 4//1 2//1
f 1//2 2//2 3//2
f 1//3 3//3 4//3
f 4//4 3//4 2//4
f 4//5 7//5 5//5
f 4//6 5//6 6//6
f 4//7 6//7 7//7
f 7//8 6//8 5//8
f 7//9 8//9 9//9
f 7//10 9//10 10//10
f 7//11 10//11 8//11
f 8//12 10//12 9//12
f 8//13 11//13 12//13
f 8//14 12//14 13//14
f 8//15 13//15 11//15
f 11//16 13//16 12//16
f 11//17 16//17 14//17
f 11//18 14//18 15//18
f 11//19 15//19 16//19
f 16//20 15//20 14//20
f 16//21 19//21 17//21
f 16//22 17//22 18//22
f 16//23 18//23 19//23
f 19//24 18//24 17//24
f 19//25 20//25 21//25
f 19//26 21//26 22//26
f 19//27 22//27 20//27
f 20//28 22//28 21//28
f 20//29 23//29 24//29
f 20//30 24//30 25//30
f 20//31 25//31 23//31
f 23//32 25//32 24//32
f 23//33 26//33 27//33
f 23//34 27//34 28//34
f 23//35 28//35 26//35
f 26//36 28//36 27//36
f 26//37 31//37 29//37
f 26//38 29//38 30//38
f 26//39 30//39 31//39
f 31//40 30//40 29//40
f 31//41 32//41 33//41
f 31//42 33//42 34//42
f 31//43 34//43 32//43
f 32//44 34//44 33//44
f 32//45 37//45 35//45
f 32//46 35//46 36//46
f 32//47 36//47 37//47
f 37//48 36//48 35//48
f 37//49 40//49 38//49
f 37//50 38//50 39//50
f 37//51 39//51 40//51
f 40//52 39//52 38//52
f 40//53 43//53 41//53
f 40//54 41//54 42//54
f 40//55 42//55 43//55
f 43//56 42//56 41//56
f 43//57 44//57 45//57
f 43//58 45//58 46//58
f 43//59 46//59 44//59
f 44//60 46//60 45//60
f 44//61 49//61 47//61
f 44//62 47//62 48//62
f 44//63 48//63 49//63
f 49//64 48//64 47//64
f 49//65 52//65 50//65
f 49//66 50//66 51//66
f 49//67 51//67 52//67
f 52//68 51//68 50//68
f 52//69 53//69 54//69
f 52//70 54//70 55//70
f 52//71 55//71 53//71
f 53//72 55//72 54//72
f 53//73 58//73 56//73
f 53//74 56//74 57//74
f 53//75 57//75 58//75
f 58//76 57//76 56//76
f 58//77 59//77 60//77
f 58//78 60//78 61//78
f 58//79 61//79 59//79
f 59//80 61//80 60//80
f 59//81 62//81 63//81
f 59//82 63//82 64//82
f 59//83 64//83 62//83
f 62//84 64//84 63//84
o Tetrahedrons_Chain_B
v 1.500000 -22.075001 -9.859998
v 1.015700 -19.754999 -11.689998
v 2.166000 -19.297001 -8.963799
v -0.694620 -20.129000 -9.260898
v 1.986800 -18.010002 -13.918999
v -0.820020 -17.733002 -12.915999
v -0.018660 -20.163002 -14.468998
v 2.196700 -15.464001 -15.481999
v 3.813800 -17.852001 -16.285997
v 4.485100 -16.366001 -13.774999
v 2.542000 -12.678001 -16.520998
v 0.420080 -13.267001 -14.492999
v 0.132690 -14.277001 -17.295998
v 2.115000 -10.746001 -18.768000
v 4.831000 -11.912001 -18.292000
v 3.698100 -9.921000 -16.364000
v 5.133600 -9.704201 -13.745999
v 2.605300 -8.166201 -14.198999
v 5.111500 -7.383801 -15.637999
v 6.246200 -4.675801 -15.053000
v 4.785500 -5.164301 -17.620001
v 7.480500 -6.389701 -17.174999
v 9.045900 -4.159901 -14.127000
v 7.003700 -5.210901 -12.206000
v 6.813300 -2.393401 -13.200000
v 5.413000 -2.310901 -10.556000
v 6.525200 0.203829 -11.739000
v 8.375800 -1.904501 -10.694000
v 3.264900 -4.065001 -11.683000
v 4.101000 -4.371800 -8.825200
v 5.947400 -5.219101 -11.024000
v 8.482500 -5.614301 -12.567000
v 7.405200 -7.829201 -10.864999
v 8.566200 -5.385501 -9.583100
v 9.820400 -3.239601 -7.914199
v 10.205000 -6.118200 -7.187099
v 7.526300 -4.829401 -6.831299
v 4.539000 -4.688500 -6.693200
v 6.113600 -5.481700 -4.273700
v 5.917900 -7.344601 -6.609099
v 8.183700 -9.265601 -6.981599
v 5.858200 -9.310101 -8.866499
v 5.518100 -10.258000 -6.047099
v 9.585800 -8.381000 -4.488699
v 10.990000 -8.232701 -7.128799
v 10.438000 -10.894000 -5.874099
v 7.446400 -9.168700 -2.548399
v 8.218500 -6.290800 -2.838300
v 10.104000 -8.223300 -1.544299
v 7.445400 -12.092000 -3.195199
v 4.945100 -10.482000 -3.539699
v 5.967200 -11.090000 -0.792309
v 10.314000 -12.897000 -2.898799
v 8.732600 -13.833000 -5.262299
v 8.143800 -14.928000 -2.538699
v 11.298000 -11.318000 -0.553669
v 12.808000 -11.259000 -3.138199
v 12.802000 -13.741000 -1.464199
v 12.146000 -10.342000 2.146801
v 13.679000 -12.531000 0.796571
v 10.928000 -13.061000 1.851801
v 13.022000 -11.327000 4.834601
v 14.244000 -8.851600 3.676301
v 14.873000 -11.527000 2.490301
v 15.612000 -13.263000 0.165301
v 17.745001 -11.822000 1.695501
v 15.858000 -10.287000 -0.050053
v 18.511999 -9.690400 -1.300899
v 16.966000 -7.506800 0.041753
v 16.000000 -8.648400 -2.551799
v 14.356000 -8.838700 -5.046500
v 16.833000 -10.494000 -4.756499
v 17.048000 -7.531001 -5.123899
v 19.465000 -7.249801 -6.867499
v 18.445000 -4.891201 -5.331900
v 16.888000 -5.948700 -7.660399
v 17.104000 -4.624701 -10.337000
v 14.707000 -4.132101 -8.612200
v 15.099000 -6.804901 -9.902699
v 17.430000 -3.868301 -13.215000
v 19.738001 -5.029401 -11.702000
v 18.783001 -2.260501 -11.082000
v 15.493000 -2.047001 -14.591000
v 15.822000 -4.869701 -15.533000
v 18.011999 -2.878001 -15.980000
v 20.365000 -4.247302 -17.226000
v 20.433001 -1.292701 -16.747999
v 18.650000 -2.425201 -18.870001
v 21.886000 -6.274001 -15.631000
v 20.815001 -6.991801 -18.334000
v 18.937000 -6.594701 -16.037001
vn 0.9226 -0.1011 -0.3723
vn -0.0103 -0.3048 0.9524
vn -0.6377 -0.5547 -0.5344
vn -0.2746 0.9605 -0.0455
vn 0.3051 0.6808 0.6659
vn -0.7886 -0.4940 0.3661
vn 0.7423 -0.6450 -0.1816
vn -0.2587 0.4582 -0.8504
vn -0.7443 -0.3038 -0.5948
vn 0.5041 -0.7956 0.3360
vn -0.3781 0.5068 0.7747
vn 0.6185 0.5926 -0.5160
vn 0.6492 0.1938 0.7355
vn -0.6649 -0.6784 0.3126
vn 0.4923 -0.3571 -0.7938
vn -0.4767 0.8415 -0.2543
vn -0.8371 0.3260 0.4394
vn -0.2191 -0.7600 -0.6119
vn 0.6445 -0.3101 0.6989
vn 0.4116 0.7440 -0.5264
vn 0.8355 -0.3425 -0.4298
vn -0.5315 -0.7691 0.3551
vn -0.5436 0.4965 -0.6768
vn 0.2394 0.6149 0.7514
vn -0.8588 0.2652 0.4382
vn -0.1857 -0.6695 -0.7192
vn 0.6111 -0.4032 0.6811
vn 0.4333 0.8075 -0.4002
vn 0.1491 0.6007 -0.7855
vn 0.2530 -0.9364 -0.2433
vn -0.9647 0.0272 0.2618
vn 0.5626 0.3086 0.7670
vn -0.8694 0.1655 -0.4656
vn 0.7466 0.3872 -0.5410
vn 0.1399 -0.9846 0.1048
vn -0.0172 0.4318 0.9018
vn 0.3165 0.2071 -0.9257
vn -0.6904 0.6695 0.2739
vn 0.7727 0.0401 0.6335
vn -0.3989 -0.9168 0.0183
vn 0.1064 0.9912 -0.0790
vn -0.5269 -0.3417 -0.7782
vn -0.4811 -0.2170 0.8494
vn 0.9016 -0.4325 0.0079
vn -0.6412 0.6682 -0.3773
vn 0.8199 -0.0348 -0.5714
vn -0.4314 -0.9020 0.0192
vn 0.2527 0.2685 0.9295
vn -0.0488 -0.0569 -0.9972
vn 0.0580 0.9592 0.2767
vn 0.8101 -0.4895 0.3226
vn -0.8193 -0.4128 0.3979
vn 0.4644 0.6618 -0.5885
vn -0.9896 0.1206 -0.0788
vn 0.2789 0.1449 0.9493
vn 0.2463 -0.9272 -0.2820
vn -0.3485 0.9278 -0.1332
vn 0.1165 -0.4432 -0.8888
vn -0.6493 -0.5240 0.5512
vn 0.8813 0.0392 0.4709
vn -0.6900 0.1131 -0.7149
vn 0.7593 0.6288 -0.1673
vn 0.3382 -0.9410 -0.0091
vn -0.4076 0.1991 0.8912
vn 0.2639 0.2083 -0.9418
vn -0.5425 0.7548 0.3688
vn 0.8214 -0.1235 0.5568
vn -0.5429 -0.8396 0.0162
vn 0.2809 0.8131 -0.5099
vn -0.9026 -0.2949 -0.3137
vn -0.0402 0.2159 0.9756
vn 0.6618 -0.7341 -0.1521
vn -0.5437 0.7840 -0.2997
vn 0.2768 -0.5378 -0.7964
vn -0.5469 -0.5699 0.6132
vn 0.8137 0.3237 0.4828
vn 0.5917 0.6807 -0.4318
vn -0.0727 -0.8023 -0.5925
vn -0.9089 0.3915 0.1439
vn 0.3898 -0.2701 0.8804
vn -0.3668 -0.9057 -0.2124
vn -0.7102 0.5539 0.4345
vn 0.2995 0.4446 -0.8441
vn 0.7776 -0.0929 0.6219
vn -0.9395 0.0532 -0.3383
vn 0.0894 -0.7843 0.6140
vn 0.2235 0.8390 0.4962
vn 0.6265 -0.1076 -0.7719
vn -0.0718 -0.8325 -0.5493
vn 0.4550 -0.2099 0.8654
vn -0.9153 0.3587 0.1830
vn 0.5322 0.6838 -0.4992
vn -0.4222 0.8816 0.2110
vn -0.5392 -0.7348 0.4114
vn 0.9291 -0.0216 0.3692
vn 0.0324 -0.1253 -0.9916
vn -0.2636 -0.8258 -0.4985
vn 0.5855 -0.2491 0.7715
vn -0.8202 0.4608 0.3392
vn 0.4983 0.6140 -0.6121
vn 0.4640 0.7785 0.4226
vn -0.6298 -0.4107 0.6593
vn 0.6778 -0.6793 -0.2813
vn -0.5120 0.3114 -0.8005
vn -0.2831 -0.9192 -0.2737
vn 0.4545 -0.0424 0.8897
vn -0.8039 0.5912 0.0643
vn 0.6324 0.3704 -0.6804
vn 0.4732 0.7931 0.3836
vn -0.7215 -0.2934 0.6272
vn 0.6524 -0.7466 -0.1301
vn -0.4042 0.2468 -0.8807
vn 0.3899 -0.1558 0.9076
vn -0.5454 0.8381 0.0109
vn -0.5824 -0.7736 -0.2498
vn 0.7379 0.0912 -0.6687
vn 0.8530 0.3095 -0.4202
vn -0.7555 0.1349 -0.6411
vn -0.1719 0.5263 0.8327
vn 0.0741 -0.9707 0.2284
s 0
f 65//85 66//85 67//85
f 65//86 67//86 68//86
f 65//87 68//87 66//87
f 66//88 68//88 67//88
f 66//89 69//89 70//89
f 66//90 70//90 71//90
f 66//91 71//91 69//91
f 69//92 71//92 70//92
f 69//93 72//93 73//93
f 69//94 73//94 74//94
f 69//95 74//95 72//95
f 72//96 74//96 73//96
f 72//97 75//97 76//97
f 72//98 76//98 77//98
f 72//99 77//99 75//99
f 75//100 77//100 76//100
f 75//101 80//101 78//101
f 75//102 78//102 79//102
f 75//103 79//103 80//103
f 80//104 79//104 78//104
f 80//105 83//105 81//105
f 80//106 81//106 82//106
f 80//107 82//107 83//107
f 83//108 82//108 81//108
f 83//109 84//109 85//109
f 83//110 85//110 86//110
f 83//111 86//111 84//111
f 84//112 86//112 85//112
f 84//113 89//113 87//113
f 84//114 87//114 88//114
f 84//115 88//115 89//115
f 89//116 88//116 87//116
f 89//117 90//117 91//117
f 89//118 91//118 92//118
f 89//119 92//119 90//119
f 90//120 92//120 91//120
f 90//121 95//121 93//121
f 90//122 93//122 94//122
f 90//123 94//123 95//123
f 95//124 94//124 93//124
f 95//125 98//125 96//125
f 95//126 96//126 97//126
f 95//127 97//127 98//127
f 98//128 97//128 96//128
f 98//129 101//129 99//129
f 98//130 99//130 100//130
f 98//131 100//131 101//131
f 101//132 100//132 99//132
f 101//133 104//133 102//133
f 101//134 102//134 103//134
f 101//135 103//135 104//135
f 104//136 103//136 102//136
f 104//137 105//137 106//137
f 104//138 106//138 107//138
f 104//139 107//139 105//139
f 105//140 107//140 106//140
f 105//141 108//141 109//141
f 105//142 109//142 110//142
f 105//143 110//143 108//143
f 108//144 110//144 109//144
f 108//145 111//145 112//145
f 108//146 112//146 113//146
f 108//147 113//147 111//147
f 111//148 113//148 112//148
f 111//149 114//149 115//149
f 111//150 115//150 116//150
f 111//151 116//151 114//151
f 114//152 116//152 115//152
f 114//153 117//153 118//153
f 114//154 118//154 119//154
f 114//155 119//155 117//155
f 117//156 119//156 118//156
f 117//157 120//157 121//157
f 117//158 121//158 122//158
f 117//159 122//159 120//159
f 120//160 122//160 121//160
f 120//161 123//161 124//161
f 120//162 124//162 125//162
f 120//163 125//163 123//163
f 123//164 125//164 124//164
f 123//165 128//165 126//165
f 123//166 126//166 127//166
f 123//167 127//167 128//167
f 128//168 127//168 126//168
f 128//169 131//169 129//169
f 128//170 129//170 130//170
f 128//171 130//171 131//171
f 131//172 130//172 129//172
f 131//173 134//173 132//173
f 131//174 132//174 133//174
f 131//175 133//175 134//175
f 134//176 133//176 132//176
f 134//177 137//177 135//177
f 134//178 135//178 136//178
f 134//179 136//179 137//179
f 137//180 136//180 135//180
f 137//181 140//181 138//181
f 137//182 138//182 139//182
f 137//183 139//183 140//183
f 140//184 139//184 138//184
f 140//185 141//185 142//185
f 140//186 142//186 143//186
f 140//187 143//187 141//187
f 141//188 143//188 142//188
f 141//189 144//189 145//189
f 141//190 145//190 146//190
f 141//191 146//191 144//191
f 144//192 146//192 145//192
f 144//193 149//193 147//193
f 144//194 147//194 148//194
f 144//195 148//195 149//195
f 149//196 148//196 147//196
f 149//197 150//197 151//197
f 149//198 151//198 152//198
f 149//199 152//199 150//199
f 150//200 152//200 151//200
f 150//201 153//201 154//201
f 150//202 154//202 155//202
f 150//203 155//203 153//203
f 153//204 155//204 154//204
o Tetrahedrons_Chain_C
v 18.546000 -0.709999 8.841000
v 15.815000 -0.694689 7.615300
v 18.077000 -2.063499 6.212100
v 18.014000 0.924380 6.389700
v 17.773001 2.112500 3.652300
v 16.445000 3.441300 5.983200
v 15.393000 0.837520 4.945700
v 13.766000 -0.420019 7.121400
v 14.500000 -2.008600 4.692300
v 12.503000 0.211560 4.481700
v 14.557000 -1.032999 9.943100
v 11.781000 -0.086694 9.337800
v 14.092000 1.802101 9.100900
v 13.202000 4.242200 7.612400
v 15.998000 4.070401 8.668700
v 13.699000 4.386001 10.561000
v 10.333000 3.412301 7.403200
v 11.861000 4.152700 4.937300
v 11.105000 6.264201 6.920599
v 9.107600 0.757561 8.046600
v 7.532800 3.271001 8.453500
v 9.840500 2.642401 10.254000
v 10.869000 4.873301 11.965000
v 11.388000 2.029101 12.742000
v 8.620200 3.153301 12.940000
v 13.299000 6.572501 12.377999
v 10.602000 7.598801 13.174999
v 11.296000 7.308601 10.277999
v 10.284000 9.963001 9.332500
v 9.522700 7.463800 7.870699
v 12.334000 8.484301 7.727099
v 13.368000 9.484000 5.101699
v 12.146000 6.757300 5.288799
v 14.812000 7.292601 6.543000
v 14.009000 10.277000 2.286799
v 15.267000 11.738000 4.576899
v 12.347000 12.077000 4.007999
v 15.561000 10.690000 -0.239401
v 12.587000 11.029000 -0.238061
v 13.782000 8.299700 0.050471
v 18.458000 10.006000 0.077257
v 17.648001 12.806000 -0.605201
v 17.355000 10.625000 -2.635701
v 17.847000 7.076800 0.185059
v 18.340000 8.597400 2.716499
v 20.601999 8.056100 0.831429
v 17.858999 6.608500 -2.771900
v 15.310000 6.342900 -1.224500
v 17.481001 4.308100 -0.893500
v 19.195999 8.845500 -4.245501
v 19.007999 6.131499 -5.495100
v 20.827999 6.581699 -3.160901
v 22.344999 5.534200 -0.802430
v 23.485001 5.260399 -3.557301
v 21.107000 3.629200 -2.751900
v 18.782000 1.761600 -2.487300
v 21.414000 0.743480 -3.487700
v 19.761000 2.558000 -5.202100
v 19.759001 4.415299 -7.550100
v 18.208000 1.856799 -7.663900
v 21.201000 1.796999 -7.714000
v 23.246000 1.807899 -9.900700
v 21.594999 -0.640391 -9.407200
v 23.698000 0.169229 -7.436400
vn -0.2533 0.7786 0.5741
vn -0.2190 -0.8511 0.4772
vn 0.9810 0.0321 -0.1915
vn -0.5090 0.0404 -0.8598
vn 0.2517 -0.8795 -0.4039
vn 0.8254 0.5407 0.1620
vn -0.4728 -0.1546 0.8675
vn -0.6043 0.4934 -0.6256
vn 0.8389 -0.3034 0.4519
vn 0.1497 0.0410 -0.9879
vn -0.2507 0.9075 0.3371
vn -0.7379 -0.6449 0.1988
vn 0.9641 0.0832 -0.2522
vn -0.2961 -0.9472 -0.1228
vn -0.5495 0.5993 -0.5822
vn -0.1184 0.2649 0.9570
vn 0.2991 -0.4150 -0.8592
vn 0.5705 -0.3366 0.7492
vn -0.9546 -0.2428 0.1727
vn 0.0848 0.9944 -0.0628
vn 0.2836 -0.9526 -0.1103
vn 0.7048 0.6031 -0.3735
vn -0.1285 0.1992 0.9715
vn -0.8600 0.1502 -0.4878
vn 0.9112 -0.4092 0.0469
vn -0.3475 -0.0663 -0.9353
vn 0.0523 0.9618 0.2688
vn -0.6160 -0.4863 0.6197
vn 0.8504 0.0114 -0.5261
vn -0.3760 -0.9266 0.0054
vn -0.6593 0.6248 -0.4184
vn 0.1851 0.2903 0.9389
vn 0.4989 -0.5509 -0.6690
vn 0.1199 -0.3930 0.9117
vn -0.9723 0.0085 -0.2338
vn 0.3533 0.9355 -0.0091
vn 0.7289 0.4589 0.5081
vn -0.8043 -0.0978 0.5861
vn 0.3135 -0.9044 -0.2893
vn -0.2384 0.5434 -0.8049
vn -0.8982 0.3884 -0.2059
vn -0.1109 -0.8070 0.5801
vn 0.5556 0.6804 0.4779
vn 0.4534 -0.2617 -0.8520
vn 0.7638 -0.6454 -0.0079
vn -0.1423 0.3366 0.9308
vn -0.8286 -0.4606 -0.3184
vn 0.2071 0.7692 -0.6045
vn 0.1104 0.9678 0.2261
vn -0.8599 -0.3359 0.3843
vn 0.7626 -0.5211 0.3833
vn -0.0131 -0.1108 -0.9938
vn -0.0541 0.2217 0.9736
vn -0.6561 0.5596 -0.5064
vn -0.2138 -0.9677 -0.1338
vn 0.9243 0.1861 -0.3333
vn -0.9763 0.2061 0.0663
vn 0.5260 0.7403 0.4186
vn 0.2574 -0.0891 -0.9622
vn 0.1927 -0.8573 0.4774
vn -0.1945 0.9687 -0.1542
vn -0.4008 -0.2861 0.8704
vn 0.9896 -0.1411 0.0264
vn -0.3943 -0.5415 -0.7425
vn 0.1172 0.4965 0.8601
vn -0.8753 0.2509 -0.4133
vn 0.0145 -0.9838 0.1784
vn 0.7436 0.2364 -0.6254
vn -0.8420 -0.0048 0.5394
vn 0.4550 0.8848 0.1003
vn -0.2204 -0.1542 -0.9631
vn 0.6073 -0.7257 0.3234
vn -0.6260 0.7798 0.0030
vn 0.2754 -0.2099 0.9381
vn 0.8093 0.2245 -0.5427
vn -0.4587 -0.7943 -0.3984
vn 0.8313 0.4363 0.3444
vn -0.8011 0.4691 0.3717
vn -0.0144 -0.9592 0.2823
vn -0.0156 0.0539 -0.9984
vn -0.6890 0.3351 -0.6427
vn -0.4423 -0.5588 0.7015
vn 0.4582 0.7766 0.4324
vn 0.6731 -0.5529 -0.4911
s 0
f 156//205 159//205 157//205
f 156//206 157//206 158//206
f 156//207 158//207 159//207
f 159//208 158//208 157//208
f 159//209 162//209 160//209
f 159//210 160//210 161//210
f 159//211 161//211 162//211
f 162//212 161//212 160//212
f 162//213 163//213 164//213
f 162//214 164//214 165//214
f 162//215 165//215 163//215
f 163//216 165//216 164//216
f 163//217 168//217 166//217
f 163//218 166//218 167//218
f 163//219 167//219 168//219
f 168//220 167//220 166//220
f 168//221 169//221 170//221
f 168//222 170//222 171//222
f 168//223 171//223 169//223
f 169//224 171//224 170//224
f 169//225 172//225 173//225
f 169//226 173//226 174//226
f 169//227 174//227 172//227
f 172//228 174//228 173//228
f 172//229 177//229 175//229
f 172//230 175//230 176//230
f 172//231 176//231 177//231
f 177//232 176//232 175//232
f 177//233 178//233 179//233
f 177//234 179//234 180//234
f 177//235 180//235 178//235
f 178//236 180//236 179//236
f 178//237 183//237 181//237
f 178//238 181//238 182//238
f 178//239 182//239 183//239
f 183//240 182//240 181//240
f 183//241 186//241 184//241
f 183//242 184//242 185//242
f 183//243 185//243 186//243
f 186//244 185//244 184//244
f 186//245 187//245 188//245
f 186//246 188//246 189//246
f 186//247 189//247 187//247
f 187//248 189//248 188//248
f 187//249 190//249 191//249
f 187//250 191//250 192//250
f 187//251 192//251 190//251
f 190//252 192//252 191//252
f 190//253 193//253 194//253
f 190//254 194//254 195//254
f 190//255 195//255 193//255
f 193//256 195//256 194//256
f 193//257 196//257 197//257
f 193//258 197//258 198//258
f 193//259 198//259 196//259
f 196//260 198//260 197//260
f 196//261 199//261 200//261
f 196//262 200//262 201//262
f 196//263 201//263 199//263
f 199//264 201//264 200//264
f 199//265 202//265 203//265
f 199//266 203//266 204//266
f 199//267 204//267 202//267
f 202//268 204//268 203//268
f 202//269 207//269 205//269
f 202//270 205//270 206//270
f 202//271 206//271 207//271
f 207//272 206//272 205//272
f 207//273 210//273 208//273
f 207//274 208//274 209//274
f 207//275 209//275 210//275
f 210//276 209//276 208//276
f 210//277 213//277 211//277
f 210//278 211//278 212//278
f 210//279 212//279 213//279
f 213//280 212//280 211//280
f 213//281 216//281 214//281
f 213//282 214//282 215//282
f 213//283 215//283 216//283
f 216//284 215//284 214//284
f 216//285 217//285 218//285
f 216//286 218//286 219//286
f 216//287 219//287 217//287
f 217//288 219//288 218//288
o Tetrahedrons_Chain_D
v 11.516000 18.174999 -2.073001
v 11.954000 15.214000 -2.045701
v 9.240000 16.320000 -2.656601
v 10.343000 16.507999 0.120139
v 10.158000 14.723000 2.516199
v 7.912400 16.593000 1.865799
v 10.517000 17.674000 2.872298
v 11.412000 14.193000 5.182799
v 12.442000 12.800000 2.741299
v 9.759800 12.077000 3.858499
v 9.963400 9.655400 2.109899
v 7.306700 10.962000 2.553399
v 8.628400 9.463800 4.782700
v 6.774300 8.640401 6.984300
v 9.645100 7.793900 7.050000
v 7.779400 6.603900 5.033599
v 8.823400 5.296000 2.551199
v 5.871400 5.536900 2.988100
v 7.482900 3.648200 4.660900
v 5.965800 2.072600 6.705100
v 8.905000 1.627301 6.351000
v 6.988900 0.726410 4.234500
v 6.672100 -1.480500 2.236600
v 4.264100 -0.008714 3.235500
v 5.743300 -1.869100 5.056000
v 5.968700 -0.672990 -0.559150
v 5.588700 -3.509400 0.320130
v 8.350200 -2.417000 -0.059073
v 4.894400 1.852300 0.637300
v 5.789900 1.812000 -2.219100
v 7.807500 1.626100 -0.015161
v 9.992000 0.362950 -1.626000
v 10.309000 0.684180 1.333600
v 10.384000 3.087900 -0.449550
v 8.846800 0.476810 -4.389800
v 9.832100 -2.124900 -3.283800
v 11.782000 0.030319 -4.002800
v 8.652500 3.463200 -4.309300
v 6.182900 1.794400 -4.028600
v 7.587800 1.956900 -6.667300
v 9.614700 5.298400 -2.148500
v 9.658100 6.196100 -5.004200
v 11.570000 4.091100 -4.067600
v 12.233000 2.575000 -6.562400
v 13.391000 1.718600 -3.937700
v 14.324000 4.252999 -5.229701
v 10.129000 1.383999 -8.327100
v 12.762000 2.210899 -9.486500
v 10.813000 4.288599 -8.564900
v 12.286000 6.821499 -7.949300
v 9.328200 6.665900 -7.513501
v 10.432000 6.700799 -10.296000
v 14.304000 7.284999 -5.787200
v 14.324000 8.994899 -8.244701
v 15.161000 6.125400 -8.411000
v 16.475000 3.440799 -8.580300
v 17.673000 5.786099 -10.004000
v 15.107000 4.591899 -10.982000
v 15.259000 3.641599 -13.817000
v 17.743000 4.525799 -12.399000
v 15.671000 6.538799 -13.185001
v 18.033001 2.544199 -14.068000
v 16.724001 3.857299 -16.419001
v 15.756000 1.190599 -15.462000
v 18.158001 0.981619 -11.517000
v 19.951000 3.346099 -11.914000
v 20.417999 0.834839 -13.475000
v 17.673000 -0.125311 -8.778300
v 15.540000 1.467599 -10.148000
v 18.021000 2.823499 -9.161400
v 18.388000 -1.634601 -6.293600
v 16.645000 0.793090 -6.121000
v 19.551001 1.080800 -6.782300
v 17.649000 -2.974500 -3.720500
v 20.427000 -3.242400 -4.803599
v 18.148001 -4.616301 -6.173900
v 14.922000 -3.907800 -2.911700
v 16.094999 -1.452000 -1.664100
v 17.214001 -4.148400 -1.001000
v 17.087000 -4.891700 1.896200
v 19.738001 -4.673400 0.521880
v 17.891001 -6.934600 -0.139349
v 17.103001 -5.609700 4.802600
v 14.588000 -5.894400 3.204300
v 15.637000 -3.171100 3.871300
v 17.528000 -4.621099 7.596400
v 19.688999 -6.158599 6.208100
v 17.186001 -7.550300 7.080700
v 15.833000 -10.204000 7.381301
v 17.450001 -9.083699 9.638401
v 18.815001 -10.060999 7.159901
vn 0.8309 0.1279 0.5416
vn 0.2292 0.0249 -0.9731
vn -0.6495 0.7313 0.2085
vn -0.4105 -0.8842 0.2229
vn -0.4277 -0.7087 -0.5610
vn -0.2321 0.9008 -0.3670
vn 0.9928 -0.1193 -0.0122
vn -0.3330 -0.0729 0.9401
vn -0.8174 0.3537 0.4547
vn 0.6452 0.7482 -0.1547
vn -0.2558 -0.4065 -0.8771
vn 0.4279 -0.6954 0.5773
vn 0.8770 -0.2306 0.4215
vn 0.1560 0.5868 -0.7945
vn -0.5721 0.4823 0.6633
vn -0.4609 -0.8386 -0.2903
vn -0.7846 0.1809 -0.5931
vn 0.2331 0.8300 0.5067
vn 0.7814 -0.2809 -0.5573
vn -0.2300 -0.7300 0.6436
vn 0.8825 -0.1450 0.4475
vn 0.0034 0.8853 -0.4650
vn -0.7277 -0.0135 0.6858
vn -0.1582 -0.7269 -0.6683
vn -0.8560 0.2134 -0.4708
vn 0.1892 0.7049 0.6837
vn 0.7472 -0.0294 -0.6639
vn -0.0803 -0.8889 0.4511
vn 0.0948 0.6606 -0.7447
vn -0.4118 0.4487 0.7931
vn 0.9016 -0.3541 0.2482
vn -0.5846 -0.7551 -0.2967
vn -0.9301 0.2165 0.2966
vn 0.3688 -0.7347 0.5693
vn 0.5761 0.8124 0.0897
vn -0.0148 -0.2943 -0.9556
vn 0.1774 -0.3587 0.9164
vn -0.9231 -0.2573 -0.2858
vn 0.6658 -0.3807 -0.6417
vn 0.0799 0.9967 0.0110
vn -0.4150 -0.8987 0.1420
vn -0.2013 0.5876 0.7837
vn -0.3740 0.4124 -0.8307
vn 0.9903 -0.1014 -0.0951
vn -0.9101 -0.1876 0.3694
vn 0.6907 -0.4312 0.5805
vn 0.1533 0.9879 -0.0228
vn 0.0661 -0.3691 -0.9271
vn 0.1253 -0.0186 0.9919
vn -0.4555 -0.8402 -0.2942
vn 0.8916 0.0701 -0.4473
vn -0.5614 0.7887 -0.2503
vn 0.1176 -0.7821 0.6119
vn -0.9251 0.3661 0.1010
vn 0.1413 -0.2925 -0.9458
vn 0.6661 0.7086 0.2329
vn -0.7880 -0.5964 0.1530
vn 0.3525 0.3188 0.8798
vn -0.2790 0.7859 -0.5518
vn 0.7144 -0.5082 -0.4810
vn -0.6970 0.2200 0.6825
vn 0.3660 -0.9131 0.1799
vn 0.7394 0.6714 0.0502
vn -0.4085 0.0215 -0.9125
vn 0.1545 -0.3173 0.9357
vn -0.8571 -0.3828 -0.3448
vn 0.7563 -0.2983 -0.5822
vn -0.0538 0.9985 -0.0088
vn -0.1663 -0.9209 0.3526
vn -0.6230 0.6445 0.4433
vn -0.1558 0.0118 -0.9877
vn 0.9451 0.2646 0.1918
vn -0.8557 -0.4364 0.2782
vn 0.5436 0.2149 0.8114
vn -0.2023 0.8429 -0.4985
vn 0.5144 -0.6215 -0.5909
vn 0.1493 -0.9351 0.3214
vn 0.3742 0.6453 0.6660
vn -0.9808 0.1629 -0.1072
vn 0.4573 0.1270 -0.8802
vn 0.3748 0.8825 0.2842
vn -0.8674 0.1439 -0.4764
vn -0.1533 -0.5719 0.8058
vn 0.6458 -0.4546 -0.6135
vn -0.6971 0.5956 0.3990
vn 0.5357 0.5154 -0.6689
vn -0.4424 -0.7743 -0.4526
vn 0.6040 -0.3367 0.7224
vn -0.3667 -0.8382 -0.4037
vn -0.1774 0.7703 -0.6126
vn 0.9859 -0.0989 0.1346
vn -0.4416 0.1667 0.8816
vn -0.8108 -0.5739 -0.1153
vn -0.1767 0.9072 -0.3819
vn 0.7741 -0.4172 -0.4762
vn 0.2132 0.0839 0.9734
vn 0.2758 0.8178 0.5051
vn 0.5477 -0.0775 -0.8331
vn -0.9678 0.0682 -0.2424
vn 0.1444 -0.8085 0.5704
vn 0.2047 -0.9102 -0.3601
vn -0.4059 0.5606 -0.7218
vn 0.8445 0.4292 0.3204
vn -0.6432 -0.0797 0.7615
vn 0.0501 0.9669 0.2503
vn 0.4883 -0.1473 -0.8601
vn -0.9574 -0.2668 -0.1104
vn 0.4189 -0.5528 0.7203
vn 0.2545 -0.9385 -0.2333
vn -0.5451 0.3915 -0.7413
vn 0.8269 0.5470 0.1306
vn -0.5364 -0.0001 0.8440
vn -0.9886 0.0949 0.1168
vn 0.3766 0.8538 -0.3594
vn 0.1903 -0.7439 -0.6406
vn 0.4218 -0.2048 0.8833
vn -0.8150 0.4560 0.3575
vn 0.8117 0.5341 0.2364
vn -0.0702 -0.0769 -0.9946
vn 0.0735 -0.9133 0.4006
s 0
f 220//289 223//289 221//289
f 220//290 221//290 222//290
f 220//291 222//291 223//291
f 223//292 222//292 221//292
f 223//293 224//293 225//293
f 223//294 225//294 226//294
f 223//295 226//295 224//295
f 224//296 226//296 225//296
f 224//297 229//297 227//297
f 224//298 227//298 228//298
f 224//299 228//299 229//299
f 229//300 228//300 227//300
f 229//301 232//301 230//301
f 229//302 230//302 231//302
f 229//303 231//303 232//303
f 232//304 231//304 230//304
f 232//305 235//305 233//305
f 232//306 233//306 234//306
f 232//307 234//307 235//307
f 235//308 234//308 233//308
f 235//309 238//309 236//309
f 235//310 236//310 237//310
f 235//311 237//311 238//311
f 238//312 237//312 236//312
f 238//313 241//313 239//313
f 238//314 239//314 240//314
f 238//315 240//315 241//315
f 241//316 240//316 239//316
f 241//317 242//317 243//317
f 241//318 243//318 244//318
f 241//319 244//319 242//319
f 242//320 244//320 243//320
f 242//321 245//321 246//321
f 242//322 246//322 247//322
f 242//323 247//323 245//323
f 245//324 247//324 246//324
f 245//325 250//325 248//325
f 245//326 248//326 249//326
f 245//327 249//327 250//327
f 250//328 249//328 248//328
f 250//329 251//329 252//329
f 250//330 252//330 253//330
f 250//331 253//331 251//331
f 251//332 253//332 252//332
f 251//333 254//333 255//333
f 251//334 255//334 256//334
f 251//335 256//335 254//335
f 254//336 256//336 255//336
f 254//337 257//337 258//337
f 254//338 258//338 259//338
f 254//339 259//339 257//339
f 257//340 259//340 258//340
f 257//341 262//341 260//341
f 257//342 260//342 261//342
f 257//343 261//343 262//343
f 262//344 261//344 260//344
f 262//345 263//345 264//345
f 262//346 264//346 265//346
f 262//347 265//347 263//347
f 263//348 265//348 264//348
f 263//349 268//349 266//349
f 263//350 266//350 267//350
f 263//351 267//351 268//351
f 268//352 267//352 266//352
f 268//353 269//353 270//353
f 268//354 270//354 271//354
f 268//355 271//355 269//355
f 269//356 271//356 270//356
f 269//357 274//357 272//357
f 269//358 272//358 273//358
f 269//359 273//359 274//359
f 274//360 273//360 272//360
f 274//361 277//361 275//361
f 274//362 275//362 276//362
f 274//363 276//363 277//363
f 277//364 276//364 275//364
f 277//365 278//365 279//365
f 277//366 279//366 280//366
f 277//367 280//367 278//367
f 278//368 280//368 279//368
f 278//369 281//369 282//369
f 278//370 282//370 283//370
f 278//371 283//371 281//371
f 281//372 283//372 282//372
f 281//373 284//373 285//373
f 281//374 285//374 286//374
f 281//375 286//375 284//375
f 284//376 286//376 285//376
f 284//377 287//377 288//377
f 284//378 288//378 289//378
f 284//379 289//379 287//379
f 287//380 289//380 288//380
f 287//381 290//381 291//381
f 287//382 291//382 292//382
f 287//383 292//383 290//383
f 290//384 292//384 291//384
f 290//385 293//385 294//385
f 290//386 294//386 295//386
f 290//387 295//387 293//387
f 293//388 295//388 294//388
f 293//389 298//389 296//389
f 293//390 296//390 297//390
f 293//391 297//391 298//391
f 298//392 297//392 296//392
f 298//393 299//393 300//393
f 298//394 300//394 301//394
f 298//395 301//395 299//395
f 299//396 301//396 300//396
f 299//397 302//397 303//397
f 299//398 303//398 304//398
f 299//399 304//399 302//399
f 302//400 304//400 303//400
f 302//401 307//401 305//401
f 302//402 305//402 306//402
f 302//403 306//403 307//403
f 307//404 306//404 305//404
f 307//405 308//405 309//405
f 307//406 309//406 310//406
f 307//407 310//407 308//407
f 308//408 310//408 309//408
