# Rhino

mtllib monomer.mtl
usemtl Tetrahedral Volumes
v -20.246337890625 15.053357124328613 -1001.174072265625
v -24.29173469543457 16.233146667480469 -1003.5055541992188
v -20.828536987304688 13.780131340026855 -1005.7820434570313
v -23.434221267700195 11.638307571411133 -1002.3446044921875
v -20.828536987304688 13.780131340026855 -1005.7820434570313
v -24.29173469543457 16.233146667480469 -1003.5055541992188
v -20.828536987304688 13.780131340026855 -1005.7820434570313
v -23.434221267700195 11.638307571411133 -1002.3446044921875
v -20.246337890625 15.053357124328613 -1001.174072265625
vn 0.41842755675315857 0.86050373315811157 -0.29060572385787964
vn 0.41842755675315857 0.86050373315811157 -0.29060572385787964
vn 0.41842755675315857 0.86050373315811157 -0.29060572385787964
vn -0.66252326965332031 -0.297384113073349 -0.687477707862854
vn -0.66252326965332031 -0.297384113073349 -0.687477707862854
vn -0.66252326965332031 -0.297384113073349 -0.687477707862854
vn 0.70921188592910767 -0.69741880893707275 0.10307974368333817
vn 0.70921188592910767 -0.69741880893707275 0.10307974368333817
vn 0.70921188592910767 -0.69741880893707275 0.10307974368333817
f 1//1 3//3 2//2
f 4//4 6//6 5//5
f 7//7 9//9 8//8
usemtl Plastic (3)
v -24.29173469543457 16.233146667480469 -1003.5055541992188
v -20.246337890625 15.053357124328613 -1001.174072265625
v -23.434221267700195 11.638307571411133 -1002.3446044921875
vn -0.46511620283126831 0.13429923355579376 0.87500321865081787
vn -0.46511620283126831 0.13429923355579376 0.87500321865081787
vn -0.46511620283126831 0.13429923355579376 0.87500321865081787
f 10//10 12//12 11//11
usemtl Plastic (3)
v -23.434221267700195 11.638308525085449 -1002.3446044921875
v -24.573757171630859 12.662927627563477 -997.77899169921875
v -20.347982406616211 14.101377487182617 -999.5870361328125
vn 0.41915270686149597 -0.85790914297103882 0.29715803265571594
vn 0.41915270686149597 -0.85790914297103882 0.29715803265571594
vn 0.41915270686149597 -0.85790914297103882 0.29715803265571594
f 13//13 15//15 14//14
usemtl Plastic (3)
v -14.120160102844238 16.604059219360352 -1004.3609619140625
v -18.224332809448242 14.793197631835938 -1006.1131591796875
v -18.024045944213867 19.400669097900391 -1004.7258911132813
vn -0.27683708071708679 -0.26596280932426453 0.92337697744369507
vn -0.27683708071708679 -0.26596280932426453 0.92337697744369507
vn -0.27683708071708679 -0.26596280932426453 0.92337697744369507
f 16//16 18//18 17//17
g Group467
usemtl Plastic (3)
v -18.024045944213867 19.400669097900391 -1004.7258911132813
v -18.175962448120117 21.358104705810547 -1000.328369140625
v -15.476717948913574 23.374465942382813 -1003.769775390625
vn 0.77679562568664551 -0.56493782997131348 0.27826923131942749
vn 0.77679562568664551 -0.56493782997131348 0.27826923131942749
vn 0.77679562568664551 -0.56493782997131348 0.27826923131942749
f 19//19 21//21 20//20
g Group465
usemtl Plastic (3)
v -15.476717948913574 23.374465942382813 -1003.769775390625
v -11.32110595703125 22.913070678710938 -1001.3799438476563
v -11.596162796020508 21.604635238647461 -1006.006591796875
vn -0.26195871829986572 -0.92446917295455933 0.27700963616371155
vn -0.26195871829986572 -0.92446917295455933 0.27700963616371155
vn -0.26195871829986572 -0.92446917295455933 0.27700963616371155
f 22//22 24//24 23//23
usemtl Plastic (3)
v -11.596164703369141 21.604637145996094 -1006.006591796875
v -11.135972023010254 18.108062744140625 -1009.2863159179688
v -14.779163360595703 21.241916656494141 -1009.6025390625
vn -0.56669771671295166 -0.60212284326553345 0.56240713596343994
vn -0.56669771671295166 -0.60212284326553345 0.56240713596343994
vn -0.56669771671295166 -0.60212284326553345 0.56240713596343994
f 25//25 27//27 26//26
usemtl Plastic (3)
v -16.56342887878418 25.348369598388672 -1007.8284912109375
v -15.428020477294922 26.518671035766602 -1003.2969360351563
v -12.03797435760498 26.564849853515625 -1006.71728515625
vn 0.20966625213623047 -0.95815563201904297 0.19487911462783813
vn 0.20966625213623047 -0.95815563201904297 0.19487911462783813
vn 0.20966625213623047 -0.95815563201904297 0.19487911462783813
f 28//28 30//30 29//29
usemtl Plastic (3)
v -12.037975311279297 26.564849853515625 -1006.71728515625
v -7.6156406402587891 24.900192260742188 -1007.6474609375
v -11.041025161743164 24.65300178527832 -1011.023681640625
vn -0.26837316155433655 -0.90195542573928833 0.33830788731575012
vn -0.26837316155433655 -0.90195542573928833 0.33830788731575012
vn -0.26837316155433655 -0.90195542573928833 0.33830788731575012
f 31//31 33//33 32//32
usemtl Tetrahedral Backbone (1)
v -24.571342468261719 23.470241546630859 -1009.8552856445313
v -22.077785491943359 27.550193786621094 -1009.2797241210938
v -25.396688461303711 27.226190567016602 -1012.7548217773438
vn -0.69654041528701782 0.33627113699913025 0.63384002447128296
vn -0.69654041528701782 0.33627113699913025 0.63384002447128296
vn -0.69654041528701782 0.33627113699913025 0.63384002447128296
f 34//34 35//35 36//36
usemtl Tetrahedral Backbone (1)
v -25.637237548828125 20.634590148925781 -1002.0870361328125
v -24.470041275024414 19.840360641479492 -1006.691650390625
v -24.291656494140625 16.232997894287109 -1003.5054321289063
vn -0.95283597707748413 -0.22602975368499756 -0.20251947641372681
vn -0.95283597707748413 -0.22602975368499756 -0.20251947641372681
vn -0.95283597707748413 -0.22602975368499756 -0.20251947641372681
f 37//37 38//38 39//39
usemtl Tetrahedral Backbone (1)
v -24.470041275024414 19.840358734130859 -1006.691650390625
v -28.64158821105957 21.170589447021484 -1008.697509765625
v -24.57127571105957 23.470317840576172 -1009.8554077148438
vn 0.15299764275550842 -0.64687007665634155 -0.74709492921829224
vn 0.15299764275550842 -0.64687007665634155 -0.74709492921829224
vn 0.15299764275550842 -0.64687007665634155 -0.74709492921829224
f 40//40 41//41 42//42
usemtl Tetrahedral Backbone (1)
v -12.981356620788574 29.477266311645508 -994.87060546875
v -9.9828968048095703 29.884199142456055 -998.61737060546875
v -8.2187166213989258 29.3187255859375 -994.1717529296875
vn -0.015413954854011536 -0.9926411509513855 -0.12010803073644638
vn -0.015413954854011536 -0.9926411509513855 -0.12010803073644638
vn -0.015413954854011536 -0.9926411509513855 -0.12010803073644638
f 43//43 44//44 45//45
usemtl Plastic (3)
v -14.779163360595703 21.241916656494141 -1009.6025390625
v -18.300561904907227 21.117820739746094 -1006.3195190429688
v -16.56342887878418 25.348369598388672 -1007.8284912109375
vn 0.68217521905899048 -0.019385404884815216 0.73093175888061523
vn 0.68217521905899048 -0.019385404884815216 0.73093175888061523
vn 0.68217521905899048 -0.019385404884815216 0.73093175888061523
f 46//46 48//48 47//47
usemtl Tetrahedral Backbone (1)
v -8.2185993194580078 29.318572998046875 -994.17181396484375
v -3.6635477542877197 28.393573760986328 -992.91064453125
v -7.06231689453125 25.038122177124023 -992.29144287109375
vn -0.18217009305953979 0.35383510589599609 0.91739565134048462
vn -0.18217009305953979 0.35383510589599609 0.91739565134048462
vn -0.18217009305953979 0.35383510589599609 0.91739565134048462
f 49//49 51//51 50//50
usemtl Tetrahedral Backbone (1)
v -7.06231689453125 25.038122177124023 -992.29144287109375
v -8.0043954849243164 20.365707397460938 -992.98114013671875
v -4.6370067596435547 22.560337066650391 -995.6341552734375
vn 0.69245076179504395 -0.24002490937709808 0.68036752939224243
vn 0.69245076179504395 -0.24002490937709808 0.68036752939224243
vn 0.69245076179504395 -0.24002490937709808 0.68036752939224243
f 52//52 53//53 54//54
usemtl Plastic (3)
v -12.300368309020996 18.08392333984375 -1000.1547241210938
v -10.198661804199219 14.473431587219238 -1002.55078125
v -14.120160102844238 16.604059219360352 -1004.3609619140625
vn -0.57953113317489624 -0.65715324878692627 0.48196816444396973
vn -0.57953113317489624 -0.65715324878692627 0.48196816444396973
vn -0.57953113317489624 -0.65715324878692627 0.48196816444396973
f 55//55 57//57 56//56
usemtl Tetrahedral Backbone (1)
v -25.669460296630859 29.296392440795898 -1008.414794921875
v -28.677492141723633 30.652273178100586 -1011.9228515625
v -25.396511077880859 27.226161956787109 -1012.7548217773438
vn 0.65448349714279175 0.69758749008178711 -0.291587233543396
vn 0.65448349714279175 0.69758749008178711 -0.291587233543396
vn 0.65448349714279175 0.69758749008178711 -0.291587233543396
f 58//58 60//60 59//59
usemtl Tetrahedral Backbone (1)
v -28.96571159362793 31.184444427490234 -1008.4619750976563
v -29.861448287963867 35.241294860839844 -1010.8976440429688
v -25.832241058349609 32.750415802001953 -1011.7672729492188
vn 0.47764652967453003 0.52734887599945068 0.70267844200134277
vn 0.47764652967453003 0.52734887599945068 0.70267844200134277
vn 0.47764652967453003 0.52734887599945068 0.70267844200134277
f 61//61 63//63 62//62
usemtl Tetrahedral Backbone (1)
v -25.673137664794922 30.676723480224609 -1004.9839477539063
v -30.254213333129883 31.627506256103516 -1003.8425903320313
v -28.96571159362793 31.184444427490234 -1008.4619750976563
vn -0.19347444176673889 -0.98028665781021118 0.040070686489343643
vn -0.19347444176673889 -0.98028665781021118 0.040070686489343643
vn -0.19347444176673889 -0.98028665781021118 0.040070686489343643
f 64//64 65//65 66//66
usemtl Tetrahedral Backbone (1)
v -25.832241058349609 32.750415802001953 -1011.7672729492188
v -21.645166397094727 31.625001907348633 -1009.6708984375
v -25.669460296630859 29.296392440795898 -1008.414794921875
vn -0.17263340950012207 0.68182700872421265 0.71085131168365479
vn -0.17263340950012207 0.68182700872421265 0.71085131168365479
vn -0.17263340950012207 0.68182700872421265 0.71085131168365479
f 67//67 69//69 68//68
g Group434
usemtl Plastic (3)
v -14.646261215209961 25.938694000244141 -1013.9466552734375
v -17.548069000244141 29.013240814208984 -1016.25341796875
v -14.325336456298828 30.665075302124023 -1013.07861328125
vn -0.67563050985336304 -0.088573910295963287 0.73190033435821533
vn -0.67563050985336304 -0.088573910295963287 0.73190033435821533
vn -0.67563050985336304 -0.088573910295963287 0.73190033435821533
f 70//70 72//72 71//71
usemtl Tetrahedral Backbone (1)
v -14.325337409973145 30.665075302124023 -1013.07861328125
v -15.035587310791016 34.966148376464844 -1011.0314331054688
v -13.485153198242188 31.261028289794922 -1008.3739013671875
vn -0.94663655757904053 -0.25199264287948608 0.20094521343708038
vn -0.94663655757904053 -0.25199264287948608 0.20094521343708038
vn -0.94663655757904053 -0.25199264287948608 0.20094521343708038
f 73//73 75//75 74//74
g Group431
usemtl Tetrahedral Backbone (1)
v -9.9828624725341797 29.884180068969727 -998.61737060546875
v -5.6615734100341797 31.952884674072266 -999.109619140625
v -9.5442094802856445 33.980560302734375 -1001.1121826171875
vn -0.15657401084899902 0.52590793371200562 0.83600562810897827
vn -0.15657401084899902 0.52590793371200562 0.83600562810897827
vn -0.15657401084899902 0.52590793371200562 0.83600562810897827
f 76//76 77//77 78//78
usemtl Tetrahedral Backbone (1)
v -11.670441627502441 30.718038558959961 -1003.9459228515625
v -12.491972923278809 35.412307739257813 -1004.6412963867188
v -9.5443086624145508 33.980556488037109 -1001.112060546875
vn -0.77520847320556641 -0.042323272675275803 0.63028603792190552
vn -0.77520847320556641 -0.042323272675275803 0.63028603792190552
vn -0.77520847320556641 -0.042323272675275803 0.63028603792190552
f 79//79 81//81 80//80
usemtl Plastic (3)
v -20.551368713378906 16.254631042480469 -1001.5042724609375
v -21.399332046508789 19.027273178100586 -997.65899658203125
v -17.012063980102539 18.938867568969727 -999.6435546875
vn 0.25700202584266663 -0.75612550973892212 0.60185062885284424
vn 0.25700202584266663 -0.75612550973892212 0.60185062885284424
vn 0.25700202584266663 -0.75612550973892212 0.60185062885284424
f 82//82 84//84 83//83
usemtl Plastic (3)
v -16.782825469970703 13.539131164550781 -1002.775634765625
v -19.388303756713867 15.775001525878906 -1006.1530151367188
v -20.551368713378906 16.254631042480469 -1001.5042724609375
vn -0.59810030460357666 -0.7985958456993103 -0.067236095666885376
vn -0.59810030460357666 -0.7985958456993103 -0.067236095666885376
vn -0.59810030460357666 -0.7985958456993103 -0.067236095666885376
f 85//85 87//87 86//86
usemtl Tetrahedral Backbone (1)
v -13.485154151916504 31.261028289794922 -1008.3739013671875
v -8.8438129425048828 30.111835479736328 -1007.7977905273438
v -11.670442581176758 30.718040466308594 -1003.9459228515625
vn 0.23773227632045746 0.97109013795852661 0.021618109196424484
vn 0.23773227632045746 0.97109013795852661 0.021618109196424484
vn 0.23773227632045746 0.97109013795852661 0.021618109196424484
f 88//88 90//90 89//89
usemtl Plastic (3)
v -20.347982406616211 14.101377487182617 -999.5870361328125
v -21.362522125244141 12.998727798461914 -1004.1639404296875
v -16.782825469970703 13.539131164550781 -1002.775634765625
vn -0.046919580549001694 0.9734300971031189 -0.22412583231925964
vn -0.046919580549001694 0.9734300971031189 -0.22412583231925964
vn -0.046919580549001694 0.9734300971031189 -0.22412583231925964
f 91//91 93//93 92//92
g Group414 Group415
usemtl Plastic (3)
v -11.041025161743164 24.65300178527832 -1011.023681640625
v -13.518967628479004 21.286626815795898 -1013.4156494140625
v -14.646261215209961 25.938694000244141 -1013.9466552734375
vn -0.64294952154159546 -0.068776518106460571 0.76281428337097168
vn -0.64294952154159546 -0.068776518106460571 0.76281428337097168
vn -0.64294952154159546 -0.068776518106460571 0.76281428337097168
f 94//94 96//96 95//95
usemtl Tetrahedral Volumes
v -14.646261215209961 25.938694000244141 -1013.9466552734375
v -10.540412902832031 24.229804992675781 -1015.7949829101563
v -11.041025161743164 24.65300178527832 -1011.023681640625
v -10.540412902832031 24.229804992675781 -1015.7949829101563
v -14.646261215209961 25.938694000244141 -1013.9466552734375
v -13.518967628479004 21.286626815795898 -1013.4156494140625
v -13.518967628479004 21.286626815795898 -1013.4156494140625
v -11.041025161743164 24.65300178527832 -1011.023681640625
v -10.540412902832031 24.229804992675781 -1015.7949829101563
vn 0.36694145202636719 0.92920678853988647 -0.0439177006483078
vn 0.36694145202636719 0.92920678853988647 -0.0439177006483078
vn 0.36694145202636719 0.92920678853988647 -0.0439177006483078
vn -0.47322925925254822 -0.21226127445697784 -0.85498493909835815
vn -0.47322925925254822 -0.21226127445697784 -0.85498493909835815
vn -0.47322925925254822 -0.21226127445697784 -0.85498493909835815
vn 0.74923771619796753 -0.64816892147064209 0.13608787953853607
vn 0.74923771619796753 -0.64816892147064209 0.13608787953853607
vn 0.74923771619796753 -0.64816892147064209 0.13608787953853607
f 97//97 99//99 98//98
f 100//100 102//102 101//101
f 103//103 105//105 104//104
usemtl Tetrahedral Backbone (2)
v -18.374549865722656 23.138605117797852 -999.9945068359375
v -22.389030456542969 20.519584655761719 -999.5274658203125
v -21.149223327636719 23.659446716308594 -996.0927734375
vn -0.52087032794952393 0.71529948711395264 -0.46587634086608887
vn -0.52087032794952393 0.71529948711395264 -0.46587634086608887
vn -0.52087032794952393 0.71529948711395264 -0.46587634086608887
f 106//106 107//107 108//108
usemtl Tetrahedral Volumes
v -21.149223327636719 23.659446716308594 -996.0927734375
v -18.589405059814453 19.62652587890625 -996.70635986328125
v -18.374549865722656 23.138605117797852 -999.9945068359375
v -18.589405059814453 19.62652587890625 -996.70635986328125
v -21.149223327636719 23.659446716308594 -996.0927734375
v -22.389030456542969 20.519584655761719 -999.5274658203125
v -22.389030456542969 20.519584655761719 -999.5274658203125
v -18.374549865722656 23.138605117797852 -999.9945068359375
v -18.589405059814453 19.62652587890625 -996.70635986328125
vn 0.767494797706604 0.41248270869255066 0.49072366952896118
vn 0.767494797706604 0.41248270869255066 0.49072366952896118
vn 0.767494797706604 0.41248270869255066 0.49072366952896118
vn -0.59372043609619141 -0.47559601068496704 0.64907974004745483
vn -0.59372043609619141 -0.47559601068496704 0.64907974004745483
vn -0.59372043609619141 -0.47559601068496704 0.64907974004745483
vn 0.34709593653678894 -0.65218585729598999 -0.67392730712890625
vn 0.34709593653678894 -0.65218585729598999 -0.67392730712890625
vn 0.34709593653678894 -0.65218585729598999 -0.67392730712890625
f 109//109 110//110 111//111
f 112//112 113//113 114//114
f 115//115 116//116 117//117
usemtl Tetrahedral Backbone (2)
v -22.351230621337891 21.971752166748047 -1002.6439208984375
v -23.741582870483398 17.361705780029297 -1002.5523681640625
v -25.927120208740234 20.592708587646484 -999.72784423828125
vn -0.66299068927764893 0.18554745614528656 -0.72526919841766357
vn -0.66299068927764893 0.18554745614528656 -0.72526919841766357
vn -0.66299068927764893 0.18554745614528656 -0.72526919841766357
f 118//118 119//119 120//120
usemtl Tetrahedral Backbone (2)
v -23.199665069580078 25.820831298828125 -999.87640380859375
v -25.655952453613281 25.212747573852539 -1003.9739379882813
v -22.351226806640625 21.971748352050781 -1002.6439208984375
vn -0.70141124725341797 -0.51148355007171631 0.49639388918876648
vn -0.70141124725341797 -0.51148355007171631 0.49639388918876648
vn -0.70141124725341797 -0.51148355007171631 0.49639388918876648
f 121//121 122//122 123//123
usemtl Tetrahedral Volumes
v -25.351100921630859 35.460018157958984 -1005.9403686523438
v -27.291801452636719 33.333473205566406 -1002.0796508789063
v -22.525602340698242 33.976188659667969 -1002.3335571289063
v -27.291801452636719 33.333473205566406 -1002.0796508789063
v -25.351100921630859 35.460018157958984 -1005.9403686523438
v -24.676078796386719 30.750711441040039 -1005.1911010742188
v -24.676078796386719 30.750711441040039 -1005.1911010742188
v -22.525602340698242 33.976188659667969 -1002.3335571289063
v -27.291801452636719 33.333473205566406 -1002.0796508789063
vn -0.096676342189311981 0.89154970645904541 0.44248476624488831
vn -0.096676342189311981 0.89154970645904541 0.44248476624488831
vn -0.096676342189311981 0.89154970645904541 0.44248476624488831
vn -0.82581174373626709 -0.20213331282138824 -0.52647608518600464
vn -0.82581174373626709 -0.20213331282138824 -0.52647608518600464
vn -0.82581174373626709 -0.20213331282138824 -0.52647608518600464
vn 0.13220749795436859 -0.70524036884307861 0.69653224945068359
vn 0.13220749795436859 -0.70524036884307861 0.69653224945068359
vn 0.13220749795436859 -0.70524036884307861 0.69653224945068359
f 124//124 125//125 126//126
f 127//127 128//128 129//129
f 130//130 131//131 132//132
usemtl Tetrahedral Backbone (2)
v -22.525602340698242 33.976188659667969 -1002.3335571289063
v -24.676078796386719 30.750711441040039 -1005.1911010742188
v -25.351100921630859 35.460018157958984 -1005.9403686523438
vn 0.79028058052062988 0.015824338421225548 -0.61254072189331055
vn 0.79028058052062988 0.015824338421225548 -0.61254072189331055
vn 0.79028058052062988 0.015824338421225548 -0.61254072189331055
f 133//133 134//134 135//135
g Group425
usemtl Tetrahedral Backbone (2)
v -21.482685089111328 29.154384613037109 -1001.958740234375
v -19.974006652832031 31.557394027709961 -1005.8501586914063
v -24.676078796386719 30.750711441040039 -1005.1911010742188
vn -0.077429145574569702 0.86141669750213623 0.50196218490600586
vn -0.077429145574569702 0.86141669750213623 0.50196218490600586
vn -0.077429145574569702 0.86141669750213623 0.50196218490600586
f 136//136 137//137 138//138
usemtl Tetrahedral Backbone (2)
v -19.974006652832031 31.557394027709961 -1005.8501586914063
v -17.684898376464844 34.27655029296875 -1009.0997314453125
v -21.985044479370117 35.643577575683594 -1007.41650390625
vn 0.4490082859992981 0.50384235382080078 0.73792576789855957
vn 0.4490082859992981 0.50384235382080078 0.73792576789855957
vn 0.4490082859992981 0.50384235382080078 0.73792576789855957
f 139//139 140//140 141//141
usemtl Tetrahedral Backbone (2)
v -13.11277961730957 36.542892456054688 -1000.8497924804688
v -12.52159595489502 33.108589172363281 -1004.1739501953125
v -13.962588310241699 31.93641471862793 -999.73052978515625
vn -0.95367121696472168 0.10770698636770248 -0.2809099555015564
vn -0.95367121696472168 0.10770698636770248 -0.2809099555015564
vn -0.95367121696472168 0.10770698636770248 -0.2809099555015564
f 142//142 143//143 144//144
usemtl Tetrahedral Backbone (2)
v -13.962592124938965 31.936418533325195 -999.73052978515625
v -17.73295783996582 33.36016845703125 -997.09393310546875
v -16.862640380859375 28.663900375366211 -997.7117919921875
vn 0.57266193628311157 -0.0017232468817383051 0.8197898268699646
vn 0.57266193628311157 -0.0017232468817383051 0.8197898268699646
vn 0.57266193628311157 -0.0017232468817383051 0.8197898268699646
f 145//145 146//146 147//147
usemtl Tetrahedral Backbone (2)
v -14.781407356262207 32.407112121582031 -1005.5071411132813
v -11.639397621154785 34.592582702636719 -1008.430419921875
v -15.781093597412109 36.768474578857422 -1007.2884521484375
vn 0.44091314077377319 0.42412224411964417 0.79102206230163574
vn 0.44091314077377319 0.42412224411964417 0.79102206230163574
vn 0.44091314077377319 0.42412224411964417 0.79102206230163574
f 148//148 149//149 150//150
usemtl Tetrahedral Backbone (2)
v -17.307308197021484 32.575801849365234 -1001.41015625
v -13.253610610961914 29.985143661499023 -1001.635009765625
v -14.781407356262207 32.407119750976563 -1005.5071411132813
vn 0.52651619911193848 0.79852581024169922 0.2917829155921936
vn 0.52651619911193848 0.79852581024169922 0.2917829155921936
vn 0.52651619911193848 0.79852581024169922 0.2917829155921936
f 151//151 152//152 153//153
g Group439
usemtl Tetrahedral Backbone (2)
v -15.259631156921387 23.437000274658203 -994.6019287109375
v -12.690326690673828 26.264499664306641 -997.5343017578125
v -15.285593032836914 22.6368408203125 -999.3511962890625
vn -0.78530168533325195 0.61119699478149414 -0.09868890792131424
vn -0.78530168533325195 0.61119699478149414 -0.09868890792131424
vn -0.78530168533325195 0.61119699478149414 -0.09868890792131424
f 154//154 155//155 156//156
usemtl Tetrahedral Backbone (2)
v -15.2596435546875 23.437004089355469 -994.6019287109375
v -19.416536331176758 22.106513977050781 -992.56658935546875
v -18.812677383422852 26.643280029296875 -994.065185546875
vn -0.36045160889625549 -0.24898889660835266 -0.89893221855163574
vn -0.36045160889625549 -0.24898889660835266 -0.89893221855163574
vn -0.36045160889625549 -0.24898889660835266 -0.89893221855163574
f 157//157 158//158 159//159
usemtl Tetrahedral Backbone (2)
v -18.812677383422852 26.643283843994141 -994.065185546875
v -22.198999404907227 29.35862922668457 -996.1517333984375
v -18.447843551635742 27.785200119018555 -998.72979736328125
vn -0.51193743944168091 -0.82428598403930664 -0.2418111264705658
vn -0.51193743944168091 -0.82428598403930664 -0.2418111264705658
vn -0.51193743944168091 -0.82428598403930664 -0.2418111264705658
f 160//160 161//161 162//162
usemtl Tetrahedral Backbone (2)
v -18.447847366333008 27.785202026367188 -998.72979736328125
v -18.613225936889648 26.553234100341797 -1003.3825073242188
v -18.374546051025391 23.138608932495117 -999.9945068359375
vn -0.99871093034744263 -0.02737758681178093 0.042742852121591568
vn -0.99871093034744263 -0.02737758681178093 0.042742852121591568
vn -0.99871093034744263 -0.02737758681178093 0.042742852121591568
f 163//163 164//164 165//165
usemtl Tetrahedral Backbone (2)
v -25.927120208740234 20.592708587646484 -999.72784423828125
v -24.401132583618164 16.570228576660156 -1001.8922729492188
v -28.637649536132813 18.505451202392578 -1003.1176147460938
vn 0.45391041040420532 0.54962271451950073 -0.70134168863296509
vn 0.45391041040420532 0.54962271451950073 -0.70134168863296509
vn 0.45391041040420532 0.54962271451950073 -0.70134168863296509
f 166//166 167//167 168//168
usemtl Tetrahedral Backbone (2)
v -21.149223327636719 23.659444808959961 -996.09271240234375
v -25.788795471191406 24.938583374023438 -995.91265869140625
v -23.199661254882813 25.820831298828125 -999.87646484375
vn -0.26030707359313965 -0.8923715353012085 -0.36866408586502075
vn -0.26030707359313965 -0.8923715353012085 -0.36866408586502075
vn -0.26030707359313965 -0.8923715353012085 -0.36866408586502075
f 169//169 170//170 171//171
g Group446
usemtl Tetrahedral Backbone (2)
v -12.690413475036621 26.264684677124023 -997.5343017578125
v -16.862642288208008 28.663908004760742 -997.7117919921875
v -12.765820503234863 31.022527694702148 -996.79010009765625
vn 0.130950927734375 0.15522769093513489 -0.97916096448898315
vn 0.130950927734375 0.15522769093513489 -0.97916096448898315
vn 0.130950927734375 0.15522769093513489 -0.97916096448898315
f 172//172 173//173 174//174
usemtl Tetrahedral Backbone (2)
v -16.812538146972656 38.736976623535156 -1003.0158081054688
v -15.228189468383789 40.328781127929688 -998.755615234375
v -13.112783432006836 36.542888641357422 -1000.8497924804688
vn 0.63700854778289795 0.61384540796279907 -0.466276615858078
vn 0.63700854778289795 0.61384540796279907 -0.466276615858078
vn 0.63700854778289795 0.61384540796279907 -0.466276615858078
f 175//175 176//176 177//177
usemtl Tetrahedral Backbone (2)
v -15.781098365783691 36.768470764160156 -1007.2884521484375
v -14.537303924560547 41.330665588378906 -1006.3757934570313
v -16.812540054321289 38.736980438232422 -1003.0158081054688
vn 0.88099700212478638 -0.31146824359893799 0.35613447427749634
vn 0.88099700212478638 -0.31146824359893799 0.35613447427749634
vn 0.88099700212478638 -0.31146824359893799 0.35613447427749634
f 178//178 179//179 180//180
usemtl Tetrahedral Backbone (2)
v -21.235086441040039 35.048019409179688 -1002.6966552734375
v -20.066619873046875 34.6351318359375 -998.04290771484375
v -17.307308197021484 32.5758056640625 -1001.41015625
vn 0.54634124040603638 0.83518314361572266 -0.063090190291404724
vn 0.54634124040603638 0.83518314361572266 -0.063090190291404724
vn 0.54634124040603638 0.83518314361572266 -0.063090190291404724
f 181//181 182//182 183//183
usemtl Tetrahedral Backbone (2)
v -21.985044479370117 35.643577575683594 -1007.41650390625
v -18.245401382446289 37.800125122070313 -1005.2816772460938
v -21.235088348388672 35.048019409179688 -1002.6966552734375
vn 0.57001364231109619 -0.79902583360671997 -0.19142140448093414
vn 0.57001364231109619 -0.79902583360671997 -0.19142140448093414
vn 0.57001364231109619 -0.79902583360671997 -0.19142140448093414
f 184//184 185//185 186//186
usemtl Tetrahedral Volumes
v -21.235088348388672 35.048019409179688 -1002.6966552734375
v -22.730012893676758 39.305850982666016 -1004.37890625
v -21.985044479370117 35.643577575683594 -1007.41650390625
v -22.730012893676758 39.305850982666016 -1004.37890625
v -21.235088348388672 35.048019409179688 -1002.6966552734375
v -18.245401382446289 37.800125122070313 -1005.2816772460938
v -18.245401382446289 37.800125122070313 -1005.2816772460938
v -21.985044479370117 35.643577575683594 -1007.41650390625
v -22.730012893676758 39.305850982666016 -1004.37890625
vn -0.95060348510742188 -0.28844651579856873 0.11468034237623215
vn -0.95060348510742188 -0.28844651579856873 0.11468034237623215
vn -0.95060348510742188 -0.28844651579856873 0.11468034237623215
vn 0.31746852397918701 0.44276043772697449 0.83855646848678589
vn 0.31746852397918701 0.44276043772697449 0.83855646848678589
vn 0.31746852397918701 0.44276043772697449 0.83855646848678589
vn 0.06312154233455658 0.64471155405044556 -0.76181536912918091
vn 0.06312154233455658 0.64471155405044556 -0.76181536912918091
vn 0.06312154233455658 0.64471155405044556 -0.76181536912918091
f 187//187 188//188 189//189
f 190//190 191//191 192//192
f 193//193 194//194 195//195
