# Rhino

mtllib monomer at origin.mtl
usemtl Tetrahedral Volumes
v -1.9277019500732422 -7.9235944747924805 2.880126953125
v -5.9730987548828125 -6.743804931640625 0.54864501953125
v -2.5099010467529297 -9.1968202590942383 -1.72784423828125
v -5.1155853271484375 -11.338644027709961 1.7095947265625
v -2.5099010467529297 -9.1968202590942383 -1.72784423828125
v -5.9730987548828125 -6.743804931640625 0.54864501953125
v -2.5099010467529297 -9.1968202590942383 -1.72784423828125
v -5.1155853271484375 -11.338644027709961 1.7095947265625
v -1.9277019500732422 -7.9235944747924805 2.880126953125
vn 0.41842755675315857 0.86050373315811157 -0.29060572385787964
vn 0.41842755675315857 0.86050373315811157 -0.29060572385787964
vn 0.41842755675315857 0.86050373315811157 -0.29060572385787964
vn -0.66252326965332031 -0.297384113073349 -0.687477707862854
vn -0.66252326965332031 -0.297384113073349 -0.687477707862854
vn -0.66252326965332031 -0.297384113073349 -0.687477707862854
vn 0.70921188592910767 -0.69741880893707275 0.10307974368333817
vn 0.70921188592910767 -0.69741880893707275 0.10307974368333817
vn 0.70921188592910767 -0.69741880893707275 0.10307974368333817
f 1//1 3//3 2//2
f 4//4 6//6 5//5
f 7//7 9//9 8//8
usemtl Plastic (3)
v -5.9730987548828125 -6.743804931640625 0.54864501953125
v -1.9277019500732422 -7.9235944747924805 2.880126953125
v -5.1155853271484375 -11.338644027709961 1.7095947265625
vn -0.46511620283126831 0.13429923355579376 0.87500321865081787
vn -0.46511620283126831 0.13429923355579376 0.87500321865081787
vn -0.46511620283126831 0.13429923355579376 0.87500321865081787
f 10//10 12//12 11//11
usemtl Plastic (3)
v -5.1155853271484375 -11.338643074035645 1.7095947265625
v -6.2551212310791016 -10.314023971557617 6.27520751953125
v -2.0293464660644531 -8.8755741119384766 4.4671630859375
vn 0.41915270686149597 -0.85790914297103882 0.29715803265571594
vn 0.41915270686149597 -0.85790914297103882 0.29715803265571594
vn 0.41915270686149597 -0.85790914297103882 0.29715803265571594
f 13//13 15//15 14//14
usemtl Plastic (3)
v 4.1984758377075195 -6.3728923797607422 -0.3067626953125
v 0.094303131103515625 -8.1837539672851563 -2.0589599609375
v 0.29458999633789063 -3.5762825012207031 -0.67169189453125
vn -0.27683708071708679 -0.26596280932426453 0.92337697744369507
vn -0.27683708071708679 -0.26596280932426453 0.92337697744369507
vn -0.27683708071708679 -0.26596280932426453 0.92337697744369507
f 16//16 18//18 17//17
g Group467
usemtl Plastic (3)
v 0.29458999633789063 -3.5762825012207031 -0.67169189453125
v 0.14267349243164063 -1.6188468933105469 3.725830078125
v 2.8419179916381836 0.39751434326171875 0.284423828125
vn 0.77679562568664551 -0.56493782997131348 0.27826923131942749
vn 0.77679562568664551 -0.56493782997131348 0.27826923131942749
vn 0.77679562568664551 -0.56493782997131348 0.27826923131942749
f 19//19 21//21 20//20
g Group465
usemtl Plastic (3)
v 2.8419179916381836 0.39751434326171875 0.284423828125
v 6.9975299835205078 -0.06388092041015625 2.67425537109375
v 6.72247314453125 -1.3723163604736328 -1.952392578125
vn -0.26195871829986572 -0.92446917295455933 0.27700963616371155
vn -0.26195871829986572 -0.92446917295455933 0.27700963616371155
vn -0.26195871829986572 -0.92446917295455933 0.27700963616371155
f 22//22 24//24 23//23
usemtl Plastic (3)
v 6.7224712371826172 -1.372314453125 -1.952392578125
v 7.1826639175415039 -4.8688888549804688 -5.23211669921875
v 3.5394725799560547 -1.7350349426269531 -5.54833984375
vn -0.56669771671295166 -0.60212284326553345 0.56240713596343994
vn -0.56669771671295166 -0.60212284326553345 0.56240713596343994
vn -0.56669771671295166 -0.60212284326553345 0.56240713596343994
f 25//25 27//27 26//26
usemtl Plastic (3)
v 1.7552070617675781 2.3714179992675781 -3.7742919921875
v 2.8906154632568359 3.5417194366455078 0.75726318359375
v 6.2806615829467773 3.5878982543945313 -2.6630859375
vn 0.20966625213623047 -0.95815563201904297 0.19487911462783813
vn 0.20966625213623047 -0.95815563201904297 0.19487911462783813
vn 0.20966625213623047 -0.95815563201904297 0.19487911462783813
f 28//28 30//30 29//29
usemtl Plastic (3)
v 6.2806606292724609 3.5878982543945313 -2.6630859375
v 10.702995300292969 1.9232406616210938 -3.59326171875
v 7.2776107788085938 1.6760501861572266 -6.969482421875
vn -0.26837316155433655 -0.90195542573928833 0.33830788731575012
vn -0.26837316155433655 -0.90195542573928833 0.33830788731575012
vn -0.26837316155433655 -0.90195542573928833 0.33830788731575012
f 31//31 33//33 32//32
usemtl Tetrahedral Backbone (1)
v -6.2527065277099609 0.49328994750976563 -5.80108642578125
v -3.7591495513916016 4.5732421875 -5.22552490234375
v -7.0780525207519531 4.2492389678955078 -8.70062255859375
vn -0.69654041528701782 0.33627113699913025 0.63384002447128296
vn -0.69654041528701782 0.33627113699913025 0.63384002447128296
vn -0.69654041528701782 0.33627113699913025 0.63384002447128296
f 34//34 35//35 36//36
usemtl Tetrahedral Backbone (1)
v -7.3186016082763672 -2.3423614501953125 1.9671630859375
v -6.1514053344726563 -3.1365909576416016 -2.637451171875
v -5.9730205535888672 -6.7439537048339844 0.54876708984375
vn -0.95283597707748413 -0.22602975368499756 -0.20251947641372681
vn -0.95283597707748413 -0.22602975368499756 -0.20251947641372681
vn -0.95283597707748413 -0.22602975368499756 -0.20251947641372681
f 37//37 38//38 39//39
usemtl Tetrahedral Backbone (1)
v -6.1514053344726563 -3.1365928649902344 -2.637451171875
v -10.322952270507813 -1.8063621520996094 -4.643310546875
v -6.2526397705078125 0.49336624145507813 -5.80120849609375
vn 0.15299764275550842 -0.64687007665634155 -0.74709492921829224
vn 0.15299764275550842 -0.64687007665634155 -0.74709492921829224
vn 0.15299764275550842 -0.64687007665634155 -0.74709492921829224
f 40//40 41//41 42//42
usemtl Tetrahedral Backbone (1)
v 5.3372793197631836 6.5003147125244141 9.18359375
v 8.3357391357421875 6.9072475433349609 5.43682861328125
v 10.099919319152832 6.3417739868164063 9.8824462890625
vn -0.015413954854011536 -0.9926411509513855 -0.12010803073644638
vn -0.015413954854011536 -0.9926411509513855 -0.12010803073644638
vn -0.015413954854011536 -0.9926411509513855 -0.12010803073644638
f 43//43 44//44 45//45
usemtl Plastic (3)
v 3.5394725799560547 -1.7350349426269531 -5.54833984375
v 0.01807403564453125 -1.859130859375 -2.26531982421875
v 1.7552070617675781 2.3714179992675781 -3.7742919921875
vn 0.68217521905899048 -0.019385404884815216 0.73093175888061523
vn 0.68217521905899048 -0.019385404884815216 0.73093175888061523
vn 0.68217521905899048 -0.019385404884815216 0.73093175888061523
f 46//46 48//48 47//47
usemtl Tetrahedral Backbone (1)
v 10.10003662109375 6.3416213989257813 9.88238525390625
v 14.655088424682617 5.4166221618652344 11.1435546875
v 11.256319046020508 2.0611705780029297 11.76275634765625
vn -0.18217009305953979 0.35383510589599609 0.91739565134048462
vn -0.18217009305953979 0.35383510589599609 0.91739565134048462
vn -0.18217009305953979 0.35383510589599609 0.91739565134048462
f 49//49 51//51 50//50
usemtl Tetrahedral Backbone (1)
v 11.256319046020508 2.0611705780029297 11.76275634765625
v 10.314240455627441 -2.6112442016601563 11.07305908203125
v 13.681629180908203 -0.41661453247070313 8.4200439453125
vn 0.69245076179504395 -0.24002490937709808 0.68036752939224243
vn 0.69245076179504395 -0.24002490937709808 0.68036752939224243
vn 0.69245076179504395 -0.24002490937709808 0.68036752939224243
f 52//52 53//53 54//54
usemtl Plastic (3)
v 6.0182676315307617 -4.8930282592773438 3.89947509765625
v 8.1199741363525391 -8.5035200119018555 1.50341796875
v 4.1984758377075195 -6.3728923797607422 -0.3067626953125
vn -0.57953113317489624 -0.65715324878692627 0.48196816444396973
vn -0.57953113317489624 -0.65715324878692627 0.48196816444396973
vn -0.57953113317489624 -0.65715324878692627 0.48196816444396973
f 55//55 57//57 56//56
usemtl Tetrahedral Backbone (1)
v -7.3508243560791016 6.3194408416748047 -4.360595703125
v -10.358856201171875 7.6753215789794922 -7.86865234375
v -7.0778751373291016 4.2492103576660156 -8.70062255859375
vn 0.65448349714279175 0.69758749008178711 -0.291587233543396
vn 0.65448349714279175 0.69758749008178711 -0.291587233543396
vn 0.65448349714279175 0.69758749008178711 -0.291587233543396
f 58//58 60//60 59//59
usemtl Tetrahedral Backbone (1)
v -10.647075653076172 8.2074928283691406 -4.40777587890625
v -11.542812347412109 12.26434326171875 -6.84344482421875
v -7.5136051177978516 9.7734642028808594 -7.71307373046875
vn 0.47764652967453003 0.52734887599945068 0.70267844200134277
vn 0.47764652967453003 0.52734887599945068 0.70267844200134277
vn 0.47764652967453003 0.52734887599945068 0.70267844200134277
f 61//61 63//63 62//62
usemtl Tetrahedral Backbone (1)
v -7.3545017242431641 7.6997718811035156 -0.92974853515625
v -11.935577392578125 8.6505546569824219 0.21160888671875
v -10.647075653076172 8.2074928283691406 -4.40777587890625
vn -0.19347444176673889 -0.98028665781021118 0.040070686489343643
vn -0.19347444176673889 -0.98028665781021118 0.040070686489343643
vn -0.19347444176673889 -0.98028665781021118 0.040070686489343643
f 64//64 65//65 66//66
usemtl Tetrahedral Backbone (1)
v -7.5136051177978516 9.7734642028808594 -7.71307373046875
v -3.3265304565429688 8.6480503082275391 -5.61669921875
v -7.3508243560791016 6.3194408416748047 -4.360595703125
vn -0.17263340950012207 0.68182700872421265 0.71085131168365479
vn -0.17263340950012207 0.68182700872421265 0.71085131168365479
vn -0.17263340950012207 0.68182700872421265 0.71085131168365479
f 67//67 69//69 68//68
g Group434
usemtl Plastic (3)
v 3.6723747253417969 2.9617424011230469 -9.8924560546875
v 0.77056694030761719 6.0362892150878906 -12.19921875
v 3.9932994842529297 7.6881237030029297 -9.0244140625
vn -0.67563050985336304 -0.088573910295963287 0.73190033435821533
vn -0.67563050985336304 -0.088573910295963287 0.73190033435821533
vn -0.67563050985336304 -0.088573910295963287 0.73190033435821533
f 70//70 72//72 71//71
usemtl Tetrahedral Backbone (1)
v 3.9932985305786133 7.6881237030029297 -9.0244140625
v 3.2830486297607422 11.98919677734375 -6.97723388671875
v 4.8334827423095703 8.2840766906738281 -4.3197021484375
vn -0.94663655757904053 -0.25199264287948608 0.20094521343708038
vn -0.94663655757904053 -0.25199264287948608 0.20094521343708038
vn -0.94663655757904053 -0.25199264287948608 0.20094521343708038
f 73//73 75//75 74//74
g Group431
usemtl Tetrahedral Backbone (1)
v 8.3357734680175781 6.9072284698486328 5.43682861328125
v 12.657062530517578 8.9759330749511719 4.944580078125
v 8.7744264602661133 11.003608703613281 2.9420166015625
vn -0.15657401084899902 0.52590793371200562 0.83600562810897827
vn -0.15657401084899902 0.52590793371200562 0.83600562810897827
vn -0.15657401084899902 0.52590793371200562 0.83600562810897827
f 76//76 77//77 78//78
usemtl Tetrahedral Backbone (1)
v 6.6481943130493164 7.7410869598388672 0.1082763671875
v 5.8266630172729492 12.435356140136719 -0.58709716796875
v 8.774327278137207 11.003604888916016 2.942138671875
vn -0.77520847320556641 -0.042323272675275803 0.63028603792190552
vn -0.77520847320556641 -0.042323272675275803 0.63028603792190552
vn -0.77520847320556641 -0.042323272675275803 0.63028603792190552
f 79//79 81//81 80//80
usemtl Plastic (3)
v -2.2327327728271484 -6.722320556640625 2.5499267578125
v -3.0806961059570313 -3.9496784210205078 6.39520263671875
v 1.3065719604492188 -4.0380840301513672 4.41064453125
vn 0.25700202584266663 -0.75612550973892212 0.60185062885284424
vn 0.25700202584266663 -0.75612550973892212 0.60185062885284424
vn 0.25700202584266663 -0.75612550973892212 0.60185062885284424
f 82//82 84//84 83//83
usemtl Plastic (3)
v 1.5358104705810547 -9.4378204345703125 1.278564453125
v -1.0696678161621094 -7.2019500732421875 -2.09881591796875
v -2.2327327728271484 -6.722320556640625 2.5499267578125
vn -0.59810030460357666 -0.7985958456993103 -0.067236095666885376
vn -0.59810030460357666 -0.7985958456993103 -0.067236095666885376
vn -0.59810030460357666 -0.7985958456993103 -0.067236095666885376
f 85//85 87//87 86//86
usemtl Tetrahedral Backbone (1)
v 4.8334817886352539 8.2840766906738281 -4.3197021484375
v 9.474822998046875 7.1348838806152344 -3.74359130859375
v 6.648193359375 7.7410888671875 0.1082763671875
vn 0.23773227632045746 0.97109013795852661 0.021618109196424484
vn 0.23773227632045746 0.97109013795852661 0.021618109196424484
vn 0.23773227632045746 0.97109013795852661 0.021618109196424484
f 88//88 90//90 89//89
usemtl Plastic (3)
v -2.0293464660644531 -8.8755741119384766 4.4671630859375
v -3.0438861846923828 -9.9782238006591797 -0.1097412109375
v 1.5358104705810547 -9.4378204345703125 1.278564453125
vn -0.046919580549001694 0.9734300971031189 -0.22412583231925964
vn -0.046919580549001694 0.9734300971031189 -0.22412583231925964
vn -0.046919580549001694 0.9734300971031189 -0.22412583231925964
f 91//91 93//93 92//92
g Group414 Group415
usemtl Plastic (3)
v 7.2776107788085938 1.6760501861572266 -6.969482421875
v 4.7996683120727539 -1.6903247833251953 -9.3614501953125
v 3.6723747253417969 2.9617424011230469 -9.8924560546875
vn -0.64294952154159546 -0.068776518106460571 0.76281428337097168
vn -0.64294952154159546 -0.068776518106460571 0.76281428337097168
vn -0.64294952154159546 -0.068776518106460571 0.76281428337097168
f 94//94 96//96 95//95
usemtl Tetrahedral Volumes
v 3.6723747253417969 2.9617424011230469 -9.8924560546875
v 7.7782230377197266 1.2528533935546875 -11.74078369140625
v 7.2776107788085938 1.6760501861572266 -6.969482421875
v 7.7782230377197266 1.2528533935546875 -11.74078369140625
v 3.6723747253417969 2.9617424011230469 -9.8924560546875
v 4.7996683120727539 -1.6903247833251953 -9.3614501953125
v 4.7996683120727539 -1.6903247833251953 -9.3614501953125
v 7.2776107788085938 1.6760501861572266 -6.969482421875
v 7.7782230377197266 1.2528533935546875 -11.74078369140625
vn 0.36694145202636719 0.92920678853988647 -0.0439177006483078
vn 0.36694145202636719 0.92920678853988647 -0.0439177006483078
vn 0.36694145202636719 0.92920678853988647 -0.0439177006483078
vn -0.47322925925254822 -0.21226127445697784 -0.85498493909835815
vn -0.47322925925254822 -0.21226127445697784 -0.85498493909835815
vn -0.47322925925254822 -0.21226127445697784 -0.85498493909835815
vn 0.74923771619796753 -0.64816892147064209 0.13608787953853607
vn 0.74923771619796753 -0.64816892147064209 0.13608787953853607
vn 0.74923771619796753 -0.64816892147064209 0.13608787953853607
f 97//97 99//99 98//98
f 100//100 102//102 101//101
f 103//103 105//105 104//104
usemtl Tetrahedral Backbone (2)
v -0.055913925170898438 0.16165351867675781 4.0596923828125
v -4.0703945159912109 -2.457366943359375 4.5267333984375
v -2.8305873870849609 0.6824951171875 7.96142578125
vn -0.52087032794952393 0.71529948711395264 -0.46587634086608887
vn -0.52087032794952393 0.71529948711395264 -0.46587634086608887
vn -0.52087032794952393 0.71529948711395264 -0.46587634086608887
f 106//106 107//107 108//108
usemtl Tetrahedral Volumes
v -2.8305873870849609 0.6824951171875 7.96142578125
v -0.27076911926269531 -3.3504257202148438 7.34783935546875
v -0.055913925170898438 0.16165351867675781 4.0596923828125
v -0.27076911926269531 -3.3504257202148438 7.34783935546875
v -2.8305873870849609 0.6824951171875 7.96142578125
v -4.0703945159912109 -2.457366943359375 4.5267333984375
v -4.0703945159912109 -2.457366943359375 4.5267333984375
v -0.055913925170898438 0.16165351867675781 4.0596923828125
v -0.27076911926269531 -3.3504257202148438 7.34783935546875
vn 0.767494797706604 0.41248270869255066 0.49072366952896118
vn 0.767494797706604 0.41248270869255066 0.49072366952896118
vn 0.767494797706604 0.41248270869255066 0.49072366952896118
vn -0.59372043609619141 -0.47559601068496704 0.64907974004745483
vn -0.59372043609619141 -0.47559601068496704 0.64907974004745483
vn -0.59372043609619141 -0.47559601068496704 0.64907974004745483
vn 0.34709593653678894 -0.65218585729598999 -0.67392730712890625
vn 0.34709593653678894 -0.65218585729598999 -0.67392730712890625
vn 0.34709593653678894 -0.65218585729598999 -0.67392730712890625
f 109//109 110//110 111//111
f 112//112 113//113 114//114
f 115//115 116//116 117//117
usemtl Tetrahedral Backbone (2)
v -4.0325946807861328 -1.0051994323730469 1.4102783203125
v -5.4229469299316406 -5.6152458190917969 1.5018310546875
v -7.6084842681884766 -2.3842430114746094 4.32635498046875
vn -0.66299068927764893 0.18554745614528656 -0.72526919841766357
vn -0.66299068927764893 0.18554745614528656 -0.72526919841766357
vn -0.66299068927764893 0.18554745614528656 -0.72526919841766357
f 118//118 119//119 120//120
usemtl Tetrahedral Backbone (2)
v -4.8810291290283203 2.8438796997070313 4.17779541015625
v -7.3373165130615234 2.2357959747314453 0.08026123046875
v -4.0325908660888672 -1.0052032470703125 1.4102783203125
vn -0.70141124725341797 -0.51148355007171631 0.49639388918876648
vn -0.70141124725341797 -0.51148355007171631 0.49639388918876648
vn -0.70141124725341797 -0.51148355007171631 0.49639388918876648
f 121//121 122//122 123//123
usemtl Tetrahedral Volumes
v -7.0324649810791016 12.483066558837891 -1.88616943359375
v -8.9731655120849609 10.356521606445313 1.97454833984375
v -4.2069664001464844 10.999237060546875 1.72064208984375
v -8.9731655120849609 10.356521606445313 1.97454833984375
v -7.0324649810791016 12.483066558837891 -1.88616943359375
v -6.3574428558349609 7.7737598419189453 -1.13690185546875
v -6.3574428558349609 7.7737598419189453 -1.13690185546875
v -4.2069664001464844 10.999237060546875 1.72064208984375
v -8.9731655120849609 10.356521606445313 1.97454833984375
vn -0.096676342189311981 0.89154970645904541 0.44248476624488831
vn -0.096676342189311981 0.89154970645904541 0.44248476624488831
vn -0.096676342189311981 0.89154970645904541 0.44248476624488831
vn -0.82581174373626709 -0.20213331282138824 -0.52647608518600464
vn -0.82581174373626709 -0.20213331282138824 -0.52647608518600464
vn -0.82581174373626709 -0.20213331282138824 -0.52647608518600464
vn 0.13220749795436859 -0.70524036884307861 0.69653224945068359
vn 0.13220749795436859 -0.70524036884307861 0.69653224945068359
vn 0.13220749795436859 -0.70524036884307861 0.69653224945068359
f 124//124 125//125 126//126
f 127//127 128//128 129//129
f 130//130 131//131 132//132
usemtl Tetrahedral Backbone (2)
v -4.2069664001464844 10.999237060546875 1.72064208984375
v -6.3574428558349609 7.7737598419189453 -1.13690185546875
v -7.0324649810791016 12.483066558837891 -1.88616943359375
vn 0.79028058052062988 0.015824338421225548 -0.61254072189331055
vn 0.79028058052062988 0.015824338421225548 -0.61254072189331055
vn 0.79028058052062988 0.015824338421225548 -0.61254072189331055
f 133//133 134//134 135//135
g Group425
usemtl Tetrahedral Backbone (2)
v -3.1640491485595703 6.1774330139160156 2.095458984375
v -1.6553707122802734 8.5804424285888672 -1.79595947265625
v -6.3574428558349609 7.7737598419189453 -1.13690185546875
vn -0.077429145574569702 0.86141669750213623 0.50196218490600586
vn -0.077429145574569702 0.86141669750213623 0.50196218490600586
vn -0.077429145574569702 0.86141669750213623 0.50196218490600586
f 136//136 137//137 138//138
usemtl Tetrahedral Backbone (2)
v -1.6553707122802734 8.5804424285888672 -1.79595947265625
v 0.63373756408691406 11.299598693847656 -5.0455322265625
v -3.6664085388183594 12.6666259765625 -3.3623046875
vn 0.4490082859992981 0.50384235382080078 0.73792576789855957
vn 0.4490082859992981 0.50384235382080078 0.73792576789855957
vn 0.4490082859992981 0.50384235382080078 0.73792576789855957
f 139//139 140//140 141//141
usemtl Tetrahedral Backbone (2)
v 5.2058563232421875 13.565940856933594 3.20440673828125
v 5.7970399856567383 10.131637573242188 -0.1197509765625
v 4.3560476303100586 8.9594631195068359 4.32366943359375
vn -0.95367121696472168 0.10770698636770248 -0.2809099555015564
vn -0.95367121696472168 0.10770698636770248 -0.2809099555015564
vn -0.95367121696472168 0.10770698636770248 -0.2809099555015564
f 142//142 143//143 144//144
usemtl Tetrahedral Backbone (2)
v 4.356043815612793 8.9594669342041016 4.32366943359375
v 0.5856781005859375 10.383216857910156 6.96026611328125
v 1.4559955596923828 5.6869487762451172 6.3424072265625
vn 0.57266193628311157 -0.0017232468817383051 0.8197898268699646
vn 0.57266193628311157 -0.0017232468817383051 0.8197898268699646
vn 0.57266193628311157 -0.0017232468817383051 0.8197898268699646
f 145//145 146//146 147//147
usemtl Tetrahedral Backbone (2)
v 3.5372285842895508 9.4301605224609375 -1.45294189453125
v 6.6792383193969727 11.615631103515625 -4.376220703125
v 2.5375423431396484 13.791522979736328 -3.2342529296875
vn 0.44091314077377319 0.42412224411964417 0.79102206230163574
vn 0.44091314077377319 0.42412224411964417 0.79102206230163574
vn 0.44091314077377319 0.42412224411964417 0.79102206230163574
f 148//148 149//149 150//150
usemtl Tetrahedral Backbone (2)
v 1.0113277435302734 9.5988502502441406 2.64404296875
v 5.0650253295898438 7.0081920623779297 2.419189453125
v 3.5372285842895508 9.4301681518554688 -1.45294189453125
vn 0.52651619911193848 0.79852581024169922 0.2917829155921936
vn 0.52651619911193848 0.79852581024169922 0.2917829155921936
vn 0.52651619911193848 0.79852581024169922 0.2917829155921936
f 151//151 152//152 153//153
g Group439
usemtl Tetrahedral Backbone (2)
v 3.0590047836303711 0.46004867553710938 9.4522705078125
v 5.6283092498779297 3.2875480651855469 6.5198974609375
v 3.0330429077148438 -0.34011077880859375 4.7030029296875
vn -0.78530168533325195 0.61119699478149414 -0.09868890792131424
vn -0.78530168533325195 0.61119699478149414 -0.09868890792131424
vn -0.78530168533325195 0.61119699478149414 -0.09868890792131424
f 154//154 155//155 156//156
usemtl Tetrahedral Backbone (2)
v 3.0589923858642578 0.460052490234375 9.4522705078125
v -1.097900390625 -0.8704376220703125 11.48760986328125
v -0.49404144287109375 3.6663284301757813 9.989013671875
vn -0.36045160889625549 -0.24898889660835266 -0.89893221855163574
vn -0.36045160889625549 -0.24898889660835266 -0.89893221855163574
vn -0.36045160889625549 -0.24898889660835266 -0.89893221855163574
f 157//157 158//158 159//159
usemtl Tetrahedral Backbone (2)
v -0.49404144287109375 3.6663322448730469 9.989013671875
v -3.8803634643554688 6.3816776275634766 7.9024658203125
v -0.12920761108398438 4.8082485198974609 5.32440185546875
vn -0.51193743944168091 -0.82428598403930664 -0.2418111264705658
vn -0.51193743944168091 -0.82428598403930664 -0.2418111264705658
vn -0.51193743944168091 -0.82428598403930664 -0.2418111264705658
f 160//160 161//161 162//162
usemtl Tetrahedral Backbone (2)
v -0.12921142578125 4.8082504272460938 5.32440185546875
v -0.29458999633789063 3.5762825012207031 0.67169189453125
v -0.055910110473632813 0.16165733337402344 4.0596923828125
vn -0.99871093034744263 -0.02737758681178093 0.042742852121591568
vn -0.99871093034744263 -0.02737758681178093 0.042742852121591568
vn -0.99871093034744263 -0.02737758681178093 0.042742852121591568
f 163//163 164//164 165//165
usemtl Tetrahedral Backbone (2)
v -7.6084842681884766 -2.3842430114746094 4.32635498046875
v -6.0824966430664063 -6.4067230224609375 2.16192626953125
v -10.319013595581055 -4.4715003967285156 0.93658447265625
vn 0.45391041040420532 0.54962271451950073 -0.70134168863296509
vn 0.45391041040420532 0.54962271451950073 -0.70134168863296509
vn 0.45391041040420532 0.54962271451950073 -0.70134168863296509
f 166//166 167//167 168//168
usemtl Tetrahedral Backbone (2)
v -2.8305873870849609 0.68249320983886719 7.96148681640625
v -7.4701595306396484 1.9616317749023438 8.14154052734375
v -4.8810253143310547 2.8438796997070313 4.177734375
vn -0.26030707359313965 -0.8923715353012085 -0.36866408586502075
vn -0.26030707359313965 -0.8923715353012085 -0.36866408586502075
vn -0.26030707359313965 -0.8923715353012085 -0.36866408586502075
f 169//169 170//170 171//171
g Group446
usemtl Tetrahedral Backbone (2)
v 5.6282224655151367 3.2877330780029297 6.5198974609375
v 1.45599365234375 5.6869564056396484 6.3424072265625
v 5.5528154373168945 8.0455760955810547 7.26409912109375
vn 0.130950927734375 0.15522769093513489 -0.97916096448898315
vn 0.130950927734375 0.15522769093513489 -0.97916096448898315
vn 0.130950927734375 0.15522769093513489 -0.97916096448898315
f 172//172 173//173 174//174
usemtl Tetrahedral Backbone (2)
v 1.5060977935791016 15.760025024414063 1.03839111328125
v 3.0904464721679688 17.351829528808594 5.298583984375
v 5.2058525085449219 13.565937042236328 3.20440673828125
vn 0.63700854778289795 0.61384540796279907 -0.466276615858078
vn 0.63700854778289795 0.61384540796279907 -0.466276615858078
vn 0.63700854778289795 0.61384540796279907 -0.466276615858078
f 175//175 176//176 177//177
usemtl Tetrahedral Backbone (2)
v 2.5375375747680664 13.791519165039063 -3.2342529296875
v 3.7813320159912109 18.353713989257813 -2.32159423828125
v 1.5060958862304688 15.760028839111328 1.03839111328125
vn 0.88099700212478638 -0.31146824359893799 0.35613447427749634
vn 0.88099700212478638 -0.31146824359893799 0.35613447427749634
vn 0.88099700212478638 -0.31146824359893799 0.35613447427749634
f 178//178 179//179 180//180
usemtl Tetrahedral Backbone (2)
v -2.9164505004882813 12.071067810058594 1.3575439453125
v -1.7479839324951172 11.658180236816406 6.01129150390625
v 1.0113277435302734 9.5988540649414063 2.64404296875
vn 0.54634124040603638 0.83518314361572266 -0.063090190291404724
vn 0.54634124040603638 0.83518314361572266 -0.063090190291404724
vn 0.54634124040603638 0.83518314361572266 -0.063090190291404724
f 181//181 182//182 183//183
usemtl Tetrahedral Backbone (2)
v -3.6664085388183594 12.6666259765625 -3.3623046875
v 0.07323455810546875 14.823173522949219 -1.22747802734375
v -2.9164524078369141 12.071067810058594 1.3575439453125
vn 0.57001364231109619 -0.79902583360671997 -0.19142140448093414
vn 0.57001364231109619 -0.79902583360671997 -0.19142140448093414
vn 0.57001364231109619 -0.79902583360671997 -0.19142140448093414
f 184//184 185//185 186//186
usemtl Tetrahedral Volumes
v -2.9164524078369141 12.071067810058594 1.3575439453125
v -4.411376953125 16.328899383544922 -0.32470703125
v -3.6664085388183594 12.6666259765625 -3.3623046875
v -4.411376953125 16.328899383544922 -0.32470703125
v -2.9164524078369141 12.071067810058594 1.3575439453125
v 0.07323455810546875 14.823173522949219 -1.22747802734375
v 0.07323455810546875 14.823173522949219 -1.22747802734375
v -3.6664085388183594 12.6666259765625 -3.3623046875
v -4.411376953125 16.328899383544922 -0.32470703125
vn -0.95060348510742188 -0.28844651579856873 0.11468034237623215
vn -0.95060348510742188 -0.28844651579856873 0.11468034237623215
vn -0.95060348510742188 -0.28844651579856873 0.11468034237623215
vn 0.31746852397918701 0.44276043772697449 0.83855646848678589
vn 0.31746852397918701 0.44276043772697449 0.83855646848678589
vn 0.31746852397918701 0.44276043772697449 0.83855646848678589
vn 0.06312154233455658 0.64471155405044556 -0.76181536912918091
vn 0.06312154233455658 0.64471155405044556 -0.76181536912918091
vn 0.06312154233455658 0.64471155405044556 -0.76181536912918091
f 187//187 188//188 189//189
f 190//190 191//191 192//192
f 193//193 194//194 195//195
